<?xml version="1.0" encoding="utf-8"?>
<!-- Generator: Adobe Illustrator 24.3.0, SVG Export Plug-In . SVG Version: 6.00 Build 0)  -->
<svg version="1.1" id="Layer_1" xmlns="http://www.w3.org/2000/svg" xmlns:xlink="http://www.w3.org/1999/xlink" x="0px" y="0px"
	 viewBox="0 0 424.3 98.6" style="enable-background:new 0 0 424.3 98.6;" xml:space="preserve">
<style type="text/css">
	.st0{fill:#020202;}
	.st1{fill:none;stroke:#F9F9F9;stroke-miterlimit:10;}
	.st2{fill-rule:evenodd;clip-rule:evenodd;fill:none;stroke:#F9F9F9;stroke-miterlimit:10;}
	.st3{fill:#FFFFFF;}
</style>
<path class="st0" d="M33.7,17.8h9.8l0.4,0.7l0.1,3l1.7,0.1h11.1l2.2,0.2l1.5,0.4l1.8,0.9l1.2,0.9l1,1.1l0.6,1l0.3,0.6l1-1.7l1.5-1.5
	l1.3-0.8l2-0.8l1.2-0.2l2-0.1h26.8l1.1,0.1l0.3,0.6v45.2l-0.4,0.4l-1.4,0.1L74,68.1l-1.8,0.3l-1.9,0.8L69.2,70l-1,0.9l-1.1,1.7
	l-0.4,1.2l-0.2,1.3h1.7l0.3-1.1l0.9-1.7l0.9-1l1.2-0.8l1.5-0.7l1.8-0.3l1.5-0.1h26l0.4,0.3l0.1,0.6l-0.2,0.6l-0.3,0.2l-25.5,0.1
	l-2.3,0.2l-1.7,0.4l-1.3,0.7l-0.8,0.8l-0.6,1l-0.3,0.8l-0.4,1.7l-1,0.1h-6.4l-0.7-0.2l-0.9-2.5L60,73.2l-0.6-0.6l-0.9-0.6l-1.7-0.6
	l-1.8-0.2l-1.8-0.1l-24.7-0.1l-0.3-0.3L28.2,70l0.6-0.6l14.8-0.1l10.8,0.1l2.5,0.2l1.4,0.3l1.8,0.9l1,0.8l0.9,1.2l0.9,2.2l1.7,0.1
	L64.3,74l-0.7-1.9l-0.7-1l-0.7-0.8l-1.3-1l-1.7-0.8l-1.9-0.4l-1-0.1l-27.8-0.1l-0.3-0.3L28.2,53l0.1-31.1l0.2-0.2l1-0.1h3.7v-1.4
	l0.1-2L33.7,17.8z M30,23.4L29.9,54v12l0.1,0.2l25.6,0.1l2.5,0.2l2.1,0.6l2.2,1.2l1.4,1.3l0.6,0.7l0.3,0.1V52.8l-0.1-0.4h-2.4v-1.1
	h2.4l0.1-0.1V32.1l-0.1-1.9l-0.3-1.7l-0.6-1.4L63.1,26l-1.2-1.2l-1.3-0.7L59,23.6l-1.1-0.2H44.1L44,23.7l-0.1,7.8l-0.2,0.3L43.2,32
	l-0.9-0.3l-3.5-2.2l-0.4,0.1l-1.7,1L35,31.6L34,32l-0.6-0.2l-0.1-0.2l-0.1-8.1l-0.1-0.1H30z M73.2,23.4l-2,0.4l-1.3,0.6l-1,0.7
	l-0.6,0.4l-1,1.4l-0.7,1.4l-0.3,1.8v40.3l0.4-0.2l1-1.1l1.3-1l1.8-0.9l1.4-0.4l1.4-0.2l1.7-0.1l25.7-0.1V23.4H73.2z"/>
<path class="st0" d="M272.3,28.1h8.3l0.8,0.8l0.8,2l1.6,5.5l1.3,4.4l2.1,7.3l0.5,1.5V50h0.3l0.3-1.8l1.6-5.7l2.1-7.5l1.5-5l0.7-1.3
	l0.5-0.5l0.8-0.2h4.9l0.8,0.8l0.8,1.6l1,3.3l1.3,4.7l2.1,7.3l0.8,2.9l0.3,1.1l0.7-1.6l2.6-8.8l1.6-5.7l1.5-4.6l0.8-1l0.3-0.2h8
	l0.3,0.5v1.3l-1.6,5.7l-1.5,4.7l-1.8,5.9l-2,6.3l-3.4,11.4l-1,2.6l-0.7,0.8l-0.3,0.2H305l-0.8-0.8l-0.7-1.3l-1.8-5.7l-2-6.2
	l-1.5-4.7l-0.5-1.5l-0.3,0.3l-1.3,4.6l-1.5,4.6l-1.3,4.1l-1.6,5.2l-0.8,1.1l-1.1,0.3h-6l-0.7-0.8l-1-2.6l-1.5-5l-1.5-4.7l-1.6-5.2
	l-1.3-4.4l-2.3-7.5l-1.3-4.2l-1-3.3v-1L272.3,28.1z"/>
<path class="st0" d="M171,26.9h1.6l2.4,0.3l3.1,0.8l2.4,1l1.8,1.1l1.6,1.3l1.6,1.8l1.3,2.4l0.7,2.3l0.2,3.9v13.8l-0.3,2.1l-0.8,2.6
	l-1.1,1.8l-1.5,1.6l-1.3,1.1l-2.8,1.6l-2.3,0.8l-2.8,0.7l-1,0.2h-4.6l-3.1-0.7l-2.8-1l-2.6-1.5l-1.6-1.5l-1.6-1.8l-1-2l-0.8-2.6
	l-0.2-1.1V39.1l0.5-2.3l0.8-2.1l1.1-1.8l1.6-1.8l2.6-1.8l2.4-1.1l2.8-0.8L171,26.9z"/>
<path class="st0" d="M236.1,28.1h18.7l3.6,0.5l2.1,0.7l2.4,1.5l1.5,1.3l1.3,1.8l1,2.1l0.7,2.6l0.2,0.8v3.4l-0.8,3.4l-1,1.8L264,50
	l-1.8,1.6l-1.8,1l-1,0.5l0.3,0.8l1.6,2.4l2.3,3.3l2.4,3.6l1.6,2.4l0.2,1l-0.5,0.7l-1.3,0.2h-7l-1.1-0.3l-1.1-1.1l-3.6-5.4l-2.1-3.1
	l-1.5-2.3l-0.2-0.7v-7l0.5-1.1l0.5-0.2l2.9-0.2l2.1-0.7l1.5-1.1l0.8-1.3l0.2-0.5v-2.3l-0.7-1.6l-1.1-1.1l-1.8-0.8l-9.8-0.2v29.1
	l-0.3,1.1l-0.8,0.7h-6.8l-1-0.3l-0.3-0.7V29l0.3-0.8L236.1,28.1z"/>
<path class="st0" d="M340.8,28.1h7.6l1.1,1l1,2.3l1.1,3.1l1.8,4.9l1.6,4.4l1.5,3.9l1.6,4.4l1.3,3.6l1.6,4.4l2.3,6.2v0.8l-0.5,0.3
	l-0.8,0.2h-7.2l-0.8-0.8l-0.8-1.6l-1.3-4.1h-14.6l-0.7,1.5l-1.5,3.9l-0.5,0.8l-1.3,0.3H327l-1-0.3l-0.2-0.2l0.2-1.3l1.8-5l1.3-3.4
	l1.5-3.9l1.5-4.1l1.8-4.7l2.8-7.5l1.5-3.9l1.6-4.1l0.8-0.8L340.8,28.1z"/>
<path class="st0" d="M221.1,27.9h2.8l2.1,0.3l0.5,0.5l0.2,0.3l0.2,2.3v24.9l-0.3,2.3l-0.8,2.4l-1,1.6l-1.8,2l-2.3,1.5l-2.3,1.1
	l-3.1,0.8l-1.8,0.3h-5l-3.3-0.7l-2.4-0.8l-2.8-1.6l-1.3-1l-1.5-1.8l-1.1-2l-0.7-2.3l-0.2-1V29l0.3-0.8l0.2-0.2h8.3l0.3,0.8l0.2,4.6
	v20l0.2,2.1l0.7,1.6l1,1.3l1.3,0.8l1.8,0.5h2.9l1.5-0.3l1.6-0.8l1.1-1.3l0.7-1.6l0.2-1.3l0.2-25.4l0.3-0.8l0.5-0.2L221.1,27.9z"/>
<path class="st0" d="M132.8,26.9h1.8l3.4,0.5l3.3,1l2.3,1.1l2,1.5l1.3,1.3l1.5,2.3l0.8,2.6l0.2,0.8v1.1l-0.5,0.8l-0.3,0.2H141
	l-1.6-2.4L139,37l-2.3-1.1l-1.6-0.3h-2.4l-1.8,0.3l-1.3,0.7l-1.3,1.1l-0.8,1.3l-0.3,1.5V55l0.5,1.6l1,1.3l1,0.8l2,0.8l1,0.2h2.4
	l1.6-0.3l1.5-0.7l1.1-1l0.7-1.3l0.7-2.4l0.3-0.3h7.5l0.5,0.2l0.5,1.1v1.6l-0.5,2.4l-0.8,2l-1.6,2.1l-1.1,1.1l-2.4,1.6l-2.4,1.1
	l-2.9,0.8l-1.6,0.3h-4.1l-3.3-0.7l-2.1-0.7l-2.6-1.3l-2.1-1.6l-1.1-1.1l-1.1-1.6l-0.8-1.6L118,58l-0.3-2.3V39.9l0.3-2.6l0.8-2.3
	l1-1.6l1.3-1.6l2-1.6l2.4-1.5l3.4-1.1l2.3-0.5L132.8,26.9z"/>
<path class="st0" d="M362.2,28.1h8.5l1,0.7l1.5,2.3l2.4,4.6l2.1,3.7l1.6,3.1l0.3,0.2l0.3-1l3.3-6.2l2.3-4.4l1.6-2.6l0.5-0.3h8.5
	l0.3,0.3v1.1l-1.5,3.1l-2,3.6l-2.3,4.2l-2,3.6l-4.6,8.5L384,66.1l-0.5,0.8l-0.8,0.5h-7.2l-0.8-0.8l-0.2-1.3l-0.2-12.8l-2-3.6
	l-2.1-3.7l-4.1-7.3l-2.6-4.6l-2-3.6l-0.2-1.1l0.2-0.3L362.2,28.1z"/>
<path class="st0" d="M38.6,50.4H40l1.5,0.3l1.1,0.6l1.1,0.9l0.8,0.8l0.8,1.5l0.4,1.4v2l-0.6,1.7l-0.8,1.2L43.2,62l-1.9,1L40,63.3
	h-1.3l-1.8-0.4l-1.2-0.7l-1.1-1l-0.9-1.1L33.2,59l-0.2-1v-2.4l0.4-1.4L34,53l1-1.1l1.1-0.8l0.9-0.4L38.6,50.4z M38.5,52l-1.3,0.4
	L36,53.2L35.4,54l-0.7,1.3l-0.1,0.4v2l0.6,1.3l0.9,1.2l1,0.7l1.2,0.4l1.2,0.1l1.3-0.2l1.5-0.8l0.8-0.8l0.8-1.5l0.2-1.5l-0.2-1.3
	l-0.8-1.5L42.3,53L41,52.3L40,52H38.5z"/>
<path class="st0" d="M90.2,26.9h1.9l1.5,0.3l1.5,0.8l1,0.9l0.8,1.1l0.6,1.3l0.2,1v2l-0.3,1.2l-0.4,1L96,37.7l-1.2,1l-1.2,0.6
	l-1.1,0.3h-2.3l-1.3-0.3l-1.1-0.6l-1.1-1l-0.8-0.9l-0.6-1.1L85,34.6l-0.1-0.8v-1.1l0.3-1.7l0.8-1.5l1.2-1.3l1-0.7l1.4-0.6L90.2,26.9
	z M90.3,28.5L89.1,29l-0.7,0.4l-1.1,1.1l-0.6,1.2l-0.1,0.6v1.9l0.3,1.1l0.8,1.2l0.8,0.7l0.9,0.4l1.5,0.3l1.3-0.1l1.4-0.4l1.1-0.9
	l0.8-1l0.3-0.9l0.1-0.7v-1.4l-0.3-1.3l-0.7-1l-0.8-0.8l-1-0.6l-1.1-0.3H90.3z"/>
<path class="st0" d="M77.9,72.7h23.9l0.8,0.2l0.1,0.1v1l-0.3,0.3l-0.3,0.1H77.9l-0.6-0.3l-0.2-0.4l0.1-0.6l0.2-0.3L77.9,72.7z"/>
<path class="st0" d="M29,72.7h23.6l1,0.1l0.2,0.4L53.7,74l-0.6,0.4H29l-0.6-0.3l-0.2-0.4l0.1-0.6l0.3-0.3L29,72.7z"/>
<path class="st0" d="M41.1,54.1l0.6,0.2l0.3,0.4l-0.1,0.8l-1.1,1h-0.2l0.8,0.9l0.6,0.7l0.1,0.7l-0.6,0.6l-0.8-0.1l-1.1-1L39,58.1
	l-0.2,0.4l-0.9,0.7l-0.7,0.1l-0.6-0.6v-0.7l1.1-1.1l-0.1-0.6l-0.9-0.9l-0.1-0.2v-0.7l0.6-0.4h0.6l1.1,0.9l0.6,0.3l1-1L41.1,54.1z"/>
<path class="st0" d="M93.4,30.6H94l0.6,0.7L94.5,32l-0.2,0.3H94v0.2l-0.9,0.8l-0.9,0.9l-1.8,1.5L90,35.8l-0.7-0.4l-0.9-0.9l-0.3-0.4
	v-0.8l0.4-0.3l0.6-0.1l0.7,0.4l0.1,0.2l0.6-0.1l1.4-1.3L93.4,30.6z"/>
<path class="st0" d="M39.2,38.7h0.6l0.4,0.6L40,40.9l-0.2,0.4l-0.7,0.1l-0.3-0.1L38.7,41v-1l0.2-1L39.2,38.7z"/>
<path class="st0" d="M80.3,39.3l0.7,0.1l0.2,0.2v2.1L81,42l-0.7,0.1L79.9,42l-0.1-0.6V40l0.2-0.6L80.3,39.3z"/>
<path class="st0" d="M91.3,46.2l0.4,0.1l0.3,0.4v1.7l-0.3,0.6H91l-0.2-0.6v-1.7L91.3,46.2z"/>
<path class="st0" d="M73.1,31.8l0.4,0.1l0.2,0.3V33l-1.7,0.9l-0.6,0.1l-0.4-0.6l0.1-0.4l0.9-0.7L73.1,31.8z"/>
<path class="st0" d="M80.3,49.1l0.8,0.1l0.1,0.1v2.1l-0.4,0.3l-0.8-0.1L79.8,51v-1.4l0.2-0.4L80.3,49.1z"/>
<path class="st0" d="M76.2,31.7l1,0.1l0.9,0.4l0.3,0.4l-0.1,0.6l-0.2,0.2l-0.9-0.1l-1.3-0.6l-0.1-0.7L76.2,31.7z"/>
<path class="st0" d="M38.8,43.6h1.1l0.1,0.2v1.7l-0.2,0.6l-0.2,0.1h-0.7l-0.2-0.3v-2L38.8,43.6z"/>
<path class="st0" d="M80.7,53.7l0.6,0.1l0.7,1l0.3,0.7l-0.1,0.4l-0.3,0.3h-0.6l-0.7-0.9l-0.4-1l0.1-0.3L80.7,53.7z"/>
<path class="st0" d="M42.3,35.3l0.6,0.1l0.2,0.2v0.6l-0.8,0.7l-0.9,0.6L41,37.3l-0.4-0.4l0.1-0.6l1-0.7L42.3,35.3z"/>
<path class="st0" d="M79.7,34.7h0.6l0.4,0.6l0.4,1.3l-0.2,0.6l-0.6,0.2l-0.6-0.2l-0.4-1.5l0.1-0.7L79.7,34.7z"/>
<path class="st0" d="M49.3,37.6l0.8,0.1l0.6,1.2l0.1,0.8L50.6,40l-0.8,0.2l-0.4-0.4l-0.4-1.3v-0.6L49.3,37.6z"/>
<path class="st0" d="M89.9,55.3l0.6,0.2l0.1,0.8l-0.8,0.9l-0.7,0.4h-0.6l-0.3-0.4l0.1-0.6l0.6-0.6L89.9,55.3z"/>
<path class="st0" d="M79.9,44.3H81l0.1,0.1v2.1l-0.2,0.2h-1l-0.1-0.3v-1.8L79.9,44.3z"/>
<path class="st0" d="M91.1,51h0.6l0.3,0.3l0.1,0.3v1.1l-0.3,0.8l-0.1,0.1H91l-0.2-0.3v-2L91.1,51z"/>
<path class="st0" d="M69.6,35.3h0.7l0.3,0.3l-0.1,1l-0.3,1.2L70,37.9l-0.8-0.1L69,37.4l0.1-1.2l0.3-0.8L69.6,35.3z"/>
<path class="st0" d="M45.5,34.8l0.9,0.1l1.2,0.6l0.1,0.2v0.7l-0.1,0.1h-1l-0.4-0.2L45.3,36l-0.2-0.3l0.1-0.6L45.5,34.8z"/>
<path class="st0" d="M57.9,51.1h1.5l0.4,0.1l0.1,1l-0.1,0.1l-1.3,0.1l-1.1-0.1l-0.1-0.8l0.1-0.3L57.9,51.1z"/>
<path class="st0" d="M83.9,56.9l0.9,0.1l1.4,0.4l0.1,0.6L86,58.4h-0.9l-1.2-0.3l-0.2-0.2v-0.7L83.9,56.9z"/>
<path class="st0" d="M91.1,41.6h0.7l0.3,0.6v1.4l-0.3,0.6l-0.4,0.1l-0.4-0.3l-0.1-0.3V42L91.1,41.6z"/>
<path class="st0" d="M69.2,44.9h0.7l0.3,0.2v2L70,47.4l-0.7,0.1L69,47.2V45L69.2,44.9z"/>
<path class="st0" d="M53,50.6l1.1,0.3l1,0.4v0.8l-0.3,0.2l-1.2-0.2l-0.9-0.4l-0.1-0.1l0.1-0.8L53,50.6z"/>
<path class="st0" d="M50.1,47.1h0.7l0.7,1.7v0.6l-0.3,0.2h-0.8l-0.4-0.9l-0.2-1.1L50.1,47.1z"/>
<path class="st0" d="M69.1,40.1h0.8l0.3,0.2v1.9L70,42.7h-0.9L69,42.3v-2.1L69.1,40.1z"/>
<path class="st0" d="M49.8,42.3h0.8l0.2,0.4v1.8l-0.2,0.3L50,45l-0.4-0.4l-0.1-1.2l0.2-0.9L49.8,42.3z"/>
<path class="st0" d="M68.2,49.3l0.4,0.2l0.2,0.2v0.6l-1.2,1.1L67,51.6L66.6,51l0.1-0.4l1.1-1.1L68.2,49.3z"/>
<path class="st1" d="M176.2,44c0,2.4-2,4.4-4.4,4.4c-2.4,0-4.4-2-4.4-4.4s2-4.4,4.4-4.4C174.2,39.6,176.2,41.5,176.2,44"/>
<path class="st2" d="M160.1,46.9c0-6.5,5.2-11.7,11.7-11.7c6.5,0,11.7,5.2,11.7,11.7s-5.2,11.7-11.7,11.7
	C165.3,58.6,160.1,53.4,160.1,46.9 M171.8,36.7c-5.7,0-10.2,4.6-10.2,10.2c0,2.3,0.8,4.6,2.2,6.4c1-1.7,3.3-3.5,8-3.5
	c4.7,0,7,1.8,8,3.5c3.5-4.4,2.8-10.9-1.6-14.4C176.4,37.4,174.1,36.7,171.8,36.7"/>
<path class="st3" d="M34.4,20v10.3c0,0.2,0.2,0.4,0.4,0.4c0.1,0,0.1,0,0.2,0l3.7-2.2l3.7,2.2c0.2,0.1,0.4,0,0.5-0.2
	c0-0.1,0-0.1,0-0.2V20c0-0.8-0.6-1.5-1.4-1.5h-5.7C35.1,18.4,34.4,19.1,34.4,20"/>
<path class="st3" d="M348.3,46.8c0.2,0.2,0.1,0.4,0,0.6c-0.1,0.1-0.2,0.1-0.3,0.1l-6.8-0.1c-0.2,0-0.4-0.2-0.4-0.4
	c0-0.1,0-0.2,0.1-0.3l3.4-3.8c0.2-0.2,0.4-0.2,0.6,0c0,0,0,0,0,0L348.3,46.8z"/>
<path class="st3" d="M351.4,50.9c0,0.9-0.8,1.7-1.7,1.7l-10.2-0.1c-0.9,0-1.7-0.8-1.7-1.7l0.1-10.2c0-0.9,0.8-1.7,1.7-1.7l10.2,0.1
	c0.9,0,1.7,0.8,1.7,1.7L351.4,50.9z M338.6,50.8c0,0.5,0.4,0.9,0.8,0.9l10.2,0.1c0.5,0,0.9-0.4,0.9-0.8l0.1-10.2
	c0-0.5-0.4-0.9-0.8-0.9l-10.2-0.1c-0.5,0-0.9,0.4-0.9,0.8L338.6,50.8z"/>
</svg>
