<?xml version="1.0" encoding="utf-8"?>
<!-- Generator: Adobe Illustrator 24.3.0, SVG Export Plug-In . SVG Version: 6.00 Build 0)  -->
<svg version="1.1" id="Layer_1" xmlns="http://www.w3.org/2000/svg" xmlns:xlink="http://www.w3.org/1999/xlink" x="0px" y="0px"
	 viewBox="0 0 1920 1080" style="enable-background:new 0 0 1920 1080;" xml:space="preserve">
<style type="text/css">
	.st0{clip-path:url(#SVGID_3_);}
	.st1{clip-path:url(#SVGID_4_);}
	.st2{clip-path:url(#SVGID_6_);fill:#FFDF2B;}
	.st3{clip-path:url(#SVGID_6_);}
	.st4{clip-path:url(#SVGID_6_);fill:#1B48AB;}
	.st5{clip-path:url(#SVGID_6_);fill:#FFFFFF;}
	.st6{clip-path:url(#SVGID_8_);}
	.st7{clip-path:url(#SVGID_8_);fill:#FFDF2B;}
	.st8{clip-path:url(#SVGID_8_);fill:#1B48AB;}
	.st9{clip-path:url(#SVGID_8_);fill:#ED3D3D;}
	.st10{clip-path:url(#SVGID_8_);fill:#FFFFFF;}
	.st11{clip-path:url(#SVGID_11_);}
	.st12{clip-path:url(#SVGID_12_);}
	.st13{clip-path:url(#SVGID_14_);fill:#FFDF2B;}
	.st14{clip-path:url(#SVGID_14_);}
	.st15{clip-path:url(#SVGID_14_);fill:#1B48AB;}
	.st16{clip-path:url(#SVGID_14_);fill:#FFFFFF;}
	.st17{clip-path:url(#SVGID_16_);}
	.st18{clip-path:url(#SVGID_16_);fill:#FFDF2B;}
	.st19{clip-path:url(#SVGID_16_);fill:#1B48AB;}
	.st20{clip-path:url(#SVGID_16_);fill:#ED3D3D;}
	.st21{clip-path:url(#SVGID_16_);fill:#FFFFFF;}
</style>
<g>
	<g>
		<defs>
			<polygon id="SVGID_1_" points="1103.2,921.7 1811,921.7 1811,109 1103.2,109 1103.2,921.7 			"/>
		</defs>
		<defs>
			<polygon id="SVGID_2_" points="1103.2,109 1811,109 1811,921.7 1103.2,921.7 1103.2,109 1103.2,109 			"/>
		</defs>
		<clipPath id="SVGID_3_">
			<use xlink:href="#SVGID_1_"  style="overflow:visible;"/>
		</clipPath>
		<clipPath id="SVGID_4_" class="st0">
			<use xlink:href="#SVGID_2_"  style="overflow:visible;"/>
		</clipPath>
		<g class="st1">
			<defs>
				<polygon id="SVGID_5_" points="1103.2,921.7 1811,921.7 1811,109 1103.2,109 1103.2,921.7 				"/>
			</defs>
			<clipPath id="SVGID_6_">
				<use xlink:href="#SVGID_5_"  style="overflow:visible;"/>
			</clipPath>
			<polyline class="st2" points="1237.1,867.8 1417,568.9 1458.3,732.8 1379.6,867.8 1237.1,867.8 			"/>
			<polyline class="st3" points="1379.6,867.8 1237.1,867.8 1195.6,920.4 1379.6,920.4 1379.6,867.8 			"/>
			<polyline class="st4" points="1379.6,867.8 1419.6,799.2 1287.8,783.6 1237.1,867.8 1379.6,867.8 			"/>
			<path class="st5" d="M1222.6,886h24.3c0.4,0,0.8-0.4,0.8-0.8c0-0.4-0.4-0.8-0.8-0.8h-24.3c-0.4,0-0.8,0.4-0.8,0.8
				C1221.8,885.6,1222.2,886,1222.6,886"/>
			<path class="st5" d="M1212.8,898.6h24.3c0.4,0,0.8-0.4,0.8-0.8c0-0.4-0.4-0.8-0.8-0.8h-24.3c-0.4,0-0.8,0.4-0.8,0.8
				C1212,898.3,1212.4,898.6,1212.8,898.6"/>
			<path class="st5" d="M1340.5,920.4L1340.5,920.4c0.3-0.6,2.7-6.1,8.7-11.4c6-5.3,15.6-10.4,30.3-10.4h0.1c0.4,0,0.8-0.4,0.8-0.8
				c0-0.4-0.4-0.8-0.8-0.8h-0.1c-15.6,0-25.7,5.7-31.9,11.3c-6.2,5.7-8.5,11.4-8.5,11.4c-0.2,0.4,0,0.9,0.4,1
				C1339.9,921,1340.3,920.8,1340.5,920.4"/>
			<path class="st5" d="M1331.1,891.3h-0.8c0,3-1.2,5.6-3.1,7.5c-1.9,1.9-4.6,3.1-7.6,3.1c-3,0-5.6-1.2-7.6-3.1
				c-1.9-1.9-3.1-4.6-3.1-7.5c0-3,1.2-5.6,3.1-7.5c1.9-1.9,4.6-3.1,7.6-3.1c3,0,5.6,1.2,7.6,3.1c1.9,1.9,3.1,4.6,3.1,7.5h1.6
				c0-6.8-5.5-12.3-12.3-12.3c-6.8,0-12.3,5.5-12.3,12.3s5.5,12.3,12.3,12.3c6.8,0,12.3-5.5,12.3-12.3H1331.1"/>
			<path class="st3" d="M1276.8,802.4l131.9,16.1c0.4,0,0.8-0.3,0.9-0.7s-0.3-0.8-0.7-0.9L1277,800.9c-0.4,0-0.8,0.3-0.9,0.7
				C1276.1,802,1276.4,802.4,1276.8,802.4"/>
			<path class="st3" d="M1269.3,869.5l38-63.8c0.2-0.4,0.1-0.9-0.3-1.1c-0.4-0.2-0.9-0.1-1.1,0.3l-38,63.8c-0.2,0.4-0.1,0.9,0.3,1.1
				C1268.5,870,1269,869.9,1269.3,869.5"/>
			<path class="st3" d="M1310,868.2l33.6-58.2c0.2-0.4,0.1-0.9-0.3-1.1c-0.4-0.2-0.9-0.1-1.1,0.3l-33.6,58.1
				c-0.2,0.4-0.1,0.9,0.3,1.1C1309.3,868.7,1309.8,868.6,1310,868.2"/>
			<path class="st3" d="M1346.6,868.2l30.6-54.5c0.2-0.4,0.1-0.9-0.3-1.1c-0.4-0.2-0.9-0.1-1.1,0.3l-30.6,54.5
				c-0.2,0.4-0.1,0.9,0.3,1.1C1345.9,868.7,1346.4,868.6,1346.6,868.2"/>
			<polyline class="st3" points="1417,568.9 1387.4,669.9 1398.5,835.4 1458.3,732.8 1417,568.9 			"/>
			<polyline class="st3" points="1754.6,675.6 1547.9,675.6 1547.9,647.8 1754.6,647.8 1754.6,675.6 			"/>
			<path class="st3" d="M1650.8,675.2l-126.3,244.8c-0.2,0.4,0,0.9,0.3,1.1c0.4,0.2,0.9,0,1.1-0.3L1652.2,676c0.2-0.4,0-0.9-0.3-1.1
				C1651.4,674.7,1651,674.8,1650.8,675.2"/>
			<path class="st3" d="M1650.8,676l127.6,244.4c0.2,0.4,0.7,0.5,1.1,0.3c0.4-0.2,0.5-0.7,0.3-1.1l-127.6-244.4
				c-0.2-0.4-0.7-0.5-1.1-0.3C1650.7,675.1,1650.6,675.6,1650.8,676"/>
			<g class="st3">
				<defs>
					<polygon id="SVGID_7_" points="1104.7,921.4 1810.9,921.4 1810.9,110.6 1104.7,110.6 1104.7,921.4 					"/>
				</defs>
				<clipPath id="SVGID_8_">
					<use xlink:href="#SVGID_7_"  style="overflow:visible;"/>
				</clipPath>
				<path class="st6" d="M1593.4,789.4h116.2c0.4,0,0.8-0.4,0.8-0.8c0-0.4-0.4-0.8-0.8-0.8h-116.2c-0.4,0-0.8,0.4-0.8,0.8
					C1592.6,789,1592.9,789.4,1593.4,789.4"/>
				<polyline class="st7" points="1669.3,241.1 1674.8,302.2 1622.2,344.3 1619.2,277.9 1669.3,241.1 				"/>
				<path class="st7" d="M1430,562.5c-66.7,27.1-47,101.4-38.1,134.6c5.2,19.4,42.8,170.8,42.8,170.8h134.7l-44.2-206.2l58.1-22.1
					l-74.8-107.5C1508.5,532.1,1444.9,556.4,1430,562.5"/>
				<polyline class="st8" points="1434.7,867.8 1416.7,795.8 1549.5,775.4 1569.4,867.8 1434.7,867.8 				"/>
				<path class="st6" d="M1422.1,817.1l132.5-17.5c0.4-0.1,0.7-0.5,0.7-0.9s-0.5-0.7-0.9-0.7l-132.6,17.5c-0.4,0.1-0.7,0.5-0.7,0.9
					C1421.3,816.9,1421.7,817.2,1422.1,817.1"/>
				<path class="st6" d="M1521.2,803.4l15.3,64.7c0.1,0.4,0.5,0.7,1,0.6c0.4-0.1,0.7-0.5,0.6-1l-15.3-64.7c-0.1-0.4-0.5-0.7-1-0.6
					C1521.4,802.5,1521.1,802.9,1521.2,803.4"/>
				<path class="st6" d="M1487.5,807.8l13.3,59.9c0.1,0.4,0.5,0.7,0.9,0.6c0.4-0.1,0.7-0.5,0.6-0.9l-13.3-59.9
					c-0.1-0.4-0.5-0.7-0.9-0.6C1487.7,806.9,1487.4,807.4,1487.5,807.8"/>
				<path class="st6" d="M1454.8,812.1l11.9,55.6c0.1,0.4,0.5,0.7,0.9,0.6c0.4-0.1,0.7-0.5,0.6-0.9l-11.9-55.6
					c-0.1-0.4-0.5-0.7-0.9-0.6C1454.9,811.2,1454.7,811.7,1454.8,812.1"/>
				<path class="st7" d="M1623.6,167.6c-17.5,0.8-49.6,12.1-48.5,50.4c0,0,1.9,31,1.7,41.3c-0.1,8.4,0.4,26.9,16.6,29.4
					c10.4,1.6,45.3,1,45.3,1l30.7-48.6C1669.3,241.1,1670,165.5,1623.6,167.6"/>
				<path class="st6" d="M1647.3,236.1c-19,0-45.6-23.1-23.6-43.8c12.8-12,73-1.6,66.9,20.9C1685.3,232.9,1659.6,236.1,1647.3,236.1
					"/>
				<path class="st6" d="M1621.4,199.7c-6.9,15.1-62.5,41.4-65.6-11.9c-0.4-7.7,6.4-22.5,29.1-12.8
					C1596.1,179.8,1629.1,182.9,1621.4,199.7"/>
				<path class="st6" d="M1580.4,241.4l0.6,18.2c0,0.4,0.4,0.8,0.8,0.8c0.4,0,0.8-0.4,0.8-0.8l-0.6-18.2c0-0.4-0.4-0.8-0.8-0.8
					C1580.7,240.6,1580.4,240.9,1580.4,241.4"/>
				<path class="st6" d="M1598.2,239.4c0.1,2.1-1,3.9-2.4,3.9c-1.4,0.1-2.7-1.6-2.8-3.7c-0.1-2.1,1-3.9,2.4-3.9
					C1596.9,235.6,1598.1,237.3,1598.2,239.4"/>
				<path class="st8" d="M1636.3,296.4c-26,21.4-43.4,68.1-52.5,112c-5.2,25.3-7.7,99.2,20.8,102.7c37.9,4.7,113,1.6,144.7-14.2
					c18.7-9.3,16.1-55.6-6.9-122.5C1731.4,342.6,1692.4,250.3,1636.3,296.4"/>
				<path class="st9" d="M1749.4,497l-136.7-4.8l-104.1,39.9l47.1,118.1c0,0,58.5-2.6,90.3-2.6C1810.8,647.7,1749.4,497,1749.4,497"
					/>
				<polyline class="st8" points="1752,495.3 1755.5,516.8 1568,507.9 1575.5,484.7 1752,495.3 				"/>
				<path class="st6" d="M1752,494.2l-51.7-2.8c-0.4,0-0.8,0.3-0.8,0.7c0,0.4,0.3,0.8,0.8,0.8l51.7,2.8c0.4,0,0.8-0.3,0.8-0.7
					C1752.8,494.6,1752.5,494.2,1752,494.2"/>
				<polyline class="st6" points="1351.2,447.9 1328.9,447.9 1328.9,429.3 1351.2,429.3 1351.2,447.9 				"/>
				<polyline class="st6" points="1380.7,447.9 1358.4,447.9 1358.4,429.3 1380.7,429.3 1380.7,447.9 				"/>
				<polyline class="st6" points="1410.2,447.9 1387.9,447.9 1387.9,429.3 1410.2,429.3 1410.2,447.9 				"/>
				<polyline class="st6" points="1439.4,447.9 1417.1,447.9 1417.1,429.3 1439.4,429.3 1439.4,447.9 				"/>
				<polyline class="st9" points="1493.5,484 1105.6,484 1105.6,458.1 1493.5,458.1 1493.5,484 				"/>
				<polyline class="st6" points="1447.6,441.2 1319.4,441.2 1319.4,458.1 1447.6,458.1 1447.6,441.2 				"/>
				<polyline class="st6" points="1293.6,440.8 1164.4,440.8 1164.4,458.1 1293.6,458.1 1293.6,440.8 				"/>
				<polyline class="st6" points="1240.2,449.5 1216.1,449.5 1216.1,258.3 1240.2,258.3 1240.2,449.5 				"/>
				<polyline class="st6" points="1257.6,200.2 1216.1,258.3 1216.1,330.2 1257.6,330.2 1257.6,200.2 				"/>
				<polyline class="st6" points="1297.2,396.6 1271.6,401.6 1219.1,133.8 1244.7,128.8 1297.2,396.6 				"/>
				<path class="st6" d="M1587.3,271.9c0.1,0,1.7,1,3.9,1c0.9,0,2-0.2,3-0.7c1-0.6,1.9-1.5,2.7-2.8c0.2-0.4,0.1-0.9-0.3-1.1
					c-0.4-0.2-0.9-0.1-1.1,0.3c-0.6,1.1-1.3,1.8-2,2.2c-0.7,0.4-1.5,0.5-2.2,0.5c-0.8,0-1.6-0.2-2.2-0.4c-0.3-0.1-0.5-0.2-0.7-0.3
					l-0.2-0.1l0,0l0,0c-0.4-0.2-0.9-0.1-1.1,0.3C1586.8,271.2,1586.9,271.7,1587.3,271.9"/>
				<path class="st6" d="M1671,221.5c0,0,29.3,34.1,3.8,38C1667,260.6,1644.7,249.6,1671,221.5"/>
				<path class="st7" d="M1636.8,238c0,0,6.7-17.9,22.2-11.8c6.2,2.4,11.7,15,0.5,26.5L1636.8,238"/>
				<path class="st6" d="M1644.7,243.4l17-15.4c0.3-0.3,0.3-0.8,0.1-1.1c-0.3-0.3-0.8-0.4-1.1-0.1l-17,15.4
					c-0.3,0.3-0.4,0.8-0.1,1.1C1643.9,243.7,1644.4,243.7,1644.7,243.4"/>
				<polyline class="st9" points="1584.9,175 1682.4,238.9 1693,223.3 1596.5,163.1 1584.9,175 				"/>
				<path class="st9" d="M1596.5,163.1c0,0,53.2-52.6,109.2,15.7c31.8,38.9,10.7,60.7-18.1,43.8
					C1663.9,208.8,1596.5,163.1,1596.5,163.1"/>
				<path class="st6" d="M1730.6,515.6c0,0,0.1,10.3,0.5,22c0.2,5.8,0.5,12,0.8,17.4c0.4,5.4,0.8,10,1.5,12.8
					c0.8,3.6,2.1,7.9,5.5,11.5c3.4,3.6,8.9,6.3,17.8,6.8c0.4,0,0.8-0.3,0.8-0.7c0-0.4-0.3-0.8-0.7-0.8c-8.6-0.5-13.7-3.1-16.8-6.3
					c-3.1-3.2-4.3-7.2-5.1-10.7c-0.6-2.6-1.1-7.2-1.4-12.6c-0.6-8.1-0.9-17.9-1.1-25.8c-0.1-3.9-0.2-7.3-0.2-9.8c0-2.4,0-3.9,0-3.9
					c0-0.4-0.4-0.8-0.8-0.8C1730.9,514.8,1730.6,515.2,1730.6,515.6"/>
				<path class="st6" d="M1688.3,512c0,0,0,0.1-0.1,0.4c-0.6,2-3.4,11.5-11.1,22c-7.7,10.5-20.4,22-40.5,28.1
					c-13.3,4-32.5,9.3-48.3,13.6c-7.9,2.1-15,4-20.1,5.3c-2.5,0.7-4.6,1.2-6,1.6c-1.4,0.4-2.2,0.6-2.2,0.6c-0.4,0.1-0.7,0.5-0.6,1
					c0.1,0.4,0.5,0.7,1,0.6c0,0,50-13,76.7-21.1c21.9-6.6,35.1-19.5,42.8-30.8c7.7-11.2,10-20.8,10-20.9c0.1-0.4-0.2-0.9-0.6-1
					C1688.8,511.4,1688.4,511.6,1688.3,512"/>
				<polyline class="st6" points="1569.4,867.8 1434.7,867.8 1392.8,920.4 1569.1,920.4 1569.4,867.8 				"/>
				<path class="st10" d="M1420.2,886h24.3c0.4,0,0.8-0.4,0.8-0.8c0-0.4-0.4-0.8-0.8-0.8h-24.3c-0.4,0-0.8,0.4-0.8,0.8
					C1419.4,885.6,1419.7,886,1420.2,886"/>
				<path class="st10" d="M1410.4,898.6h24.3c0.4,0,0.8-0.4,0.8-0.8c0-0.4-0.4-0.8-0.8-0.8h-24.3c-0.4,0-0.8,0.4-0.8,0.8
					C1409.6,898.3,1409.9,898.6,1410.4,898.6"/>
				<path class="st10" d="M1538.1,920.2L1538.1,920.2c0-0.6,0.6-6,4.7-11.2c4.1-5.2,11.8-10.3,26.5-10.3h0.1c0.4,0,0.8-0.4,0.8-0.8
					c0-0.4-0.4-0.8-0.8-0.8h-0.1c-15.6,0-23.9,5.7-28.1,11.5c-4.3,5.8-4.6,11.5-4.6,11.6c0,0.4,0.3,0.8,0.8,0.8
					C1537.7,920.9,1538.1,920.6,1538.1,920.2"/>
				<path class="st10" d="M1528.7,891.3h-0.8c0,3-1.2,5.6-3.1,7.5c-1.9,1.9-4.6,3.1-7.6,3.1s-5.6-1.2-7.6-3.1
					c-1.9-1.9-3.1-4.6-3.1-7.5c0-3,1.2-5.6,3.1-7.5c1.9-1.9,4.6-3.1,7.6-3.1s5.6,1.2,7.6,3.1c1.9,1.9,3.1,4.6,3.1,7.5h1.6
					c0-6.8-5.5-12.3-12.3-12.3s-12.3,5.5-12.3,12.3s5.5,12.3,12.3,12.3s12.3-5.5,12.3-12.3H1528.7"/>
				<path class="st6" d="M1534.6,522.1l50.5,127.2c0.2,0.4,0.6,0.6,1,0.4c0.4-0.2,0.6-0.6,0.4-1L1536,521.5c-0.2-0.4-0.6-0.6-1-0.4
					C1534.6,521.3,1534.4,521.7,1534.6,522.1"/>
				<path class="st6" d="M1692.3,224.3l-95.4-61.8c-0.4-0.2-0.9-0.1-1.1,0.2c-0.2,0.4-0.1,0.9,0.2,1.1l95.4,61.8
					c0.4,0.2,0.9,0.1,1.1-0.2C1692.8,225,1692.7,224.5,1692.3,224.3"/>
				<path class="st6" d="M1603.2,188.6l11.3-13.8c0.3-0.3,0.2-0.8-0.1-1.1c-0.3-0.3-0.8-0.2-1.1,0.1l-11.3,13.8
					c-0.3,0.3-0.2,0.8,0.1,1.1C1602.4,189,1602.9,189,1603.2,188.6"/>
				<path class="st6" d="M1623.7,202.7l11.2-14.6c0.3-0.3,0.2-0.8-0.1-1.1s-0.8-0.2-1.1,0.1l-11.2,14.6c-0.3,0.3-0.2,0.8,0.1,1.1
					S1623.4,203.1,1623.7,202.7"/>
				<path class="st6" d="M1643.2,216.1l10.6-15.6c0.2-0.4,0.2-0.9-0.2-1.1c-0.4-0.2-0.9-0.2-1.1,0.2l-10.6,15.6
					c-0.2,0.4-0.1,0.9,0.2,1.1C1642.4,216.5,1642.9,216.4,1643.2,216.1"/>
				<path class="st6" d="M1663.6,227.3l10.1-14.1c0.3-0.4,0.2-0.9-0.2-1.1c-0.4-0.3-0.9-0.2-1.1,0.2l-10.1,14.1
					c-0.3,0.4-0.2,0.9,0.2,1.1C1662.9,227.7,1663.4,227.6,1663.6,227.3"/>
				<path class="st7" d="M1442.6,385.9c-13.6,4.3-50.5,33-42.1,42.2c2.9,3.1,12.5,4.8,23.8-3.7c0,0-7.7,10.7,4.1,18
					c0,0-1.6,22.9,46.3,8.6c0,0,3.9,16.8,26.4,16.8l22.9-66.8C1523.9,400.9,1469.5,377.3,1442.6,385.9"/>
				<path class="st6" d="M1475.4,450.6c0,0-1.6-3.5-4.9-7c-3.3-3.5-8.5-7-15.6-7c-2.7,0-5.6,0.5-8.7,1.7c-0.4,0.2-0.6,0.6-0.5,1
					c0.2,0.4,0.6,0.6,1,0.5c3-1.1,5.7-1.6,8.2-1.6c6.5,0,11.3,3.2,14.5,6.5c1.6,1.7,2.7,3.3,3.5,4.5c0.4,0.6,0.7,1.1,0.9,1.5
					c0.1,0.2,0.2,0.3,0.2,0.4l0.1,0.1c0.2,0.4,0.7,0.6,1.1,0.4C1475.4,451.5,1475.6,451,1475.4,450.6"/>
				<path class="st6" d="M1429.2,442.2L1429.2,442.2c0-0.1,0-0.4,0-0.9c0-2,0.4-7.2,4-12.4c3.6-5.2,10.5-10.4,23.8-12.5
					c0.4-0.1,0.7-0.5,0.7-0.9c-0.1-0.4-0.5-0.7-0.9-0.7c-13.6,2.1-20.9,7.6-24.8,13.2c-3.9,5.5-4.3,11.1-4.3,13.3c0,0.6,0,1,0,1
					c0,0.4,0.4,0.7,0.9,0.7C1428.9,443,1429.2,442.7,1429.2,442.2"/>
				<path class="st6" d="M1424.9,424.7l0.1-0.2c0.6-1,3.7-5.5,8.4-9.7c4.8-4.2,11.2-8.1,18.6-8.1c1.1,0,2.2,0.1,3.3,0.3
					c0.4,0.1,0.8-0.2,0.9-0.7c0.1-0.4-0.2-0.8-0.7-0.9c-1.2-0.2-2.4-0.3-3.6-0.3c-8.6,0-15.7,4.8-20.7,9.4c-5,4.7-7.9,9.3-7.9,9.4
					c-0.2,0.4-0.1,0.9,0.3,1.1C1424.2,425.2,1424.7,425.1,1424.9,424.7"/>
				<path class="st8" d="M1616.5,342.4l2,97.5c0,0-56.4-27.1-94.6-39l-22.9,66.8c64.7,40.2,146.6,96.3,182.3,66.6
					c33.2-27.6,22-194.1,22-194.1L1616.5,342.4"/>
				<path class="st6" d="M1400.7,420.6c0,0,0.9,0.1,2.1,0.1c1.5,0,3.7-0.2,5.9-1.1c2.2-0.9,4.3-2.6,5.5-5.4c0.1-0.2,0.1-0.4,0.1-0.7
					c0-0.7-0.3-1.2-0.6-1.9c-1-1.8-2.9-3.7-2.9-3.7c-0.3-0.3-0.8-0.3-1.1,0c-0.3,0.3-0.3,0.8,0,1.1l0.1,0.1c0.3,0.3,1.1,1.2,1.8,2.1
					c0.3,0.5,0.7,0.9,0.9,1.3c0.2,0.4,0.3,0.8,0.3,0.9v0l0,0l0,0v0l0,0l0,0c-1.1,2.4-2.8,3.8-4.7,4.6c-1.9,0.8-3.9,1-5.3,1
					c-0.6,0-1,0-1.4-0.1c-0.2,0-0.3,0-0.4,0l-0.1,0c-0.4-0.1-0.8,0.2-0.9,0.7C1399.9,420.1,1400.2,420.5,1400.7,420.6"/>
				<path class="st6" d="M1619.7,290.7l11.3-0.1c0.4,0,0.8-0.4,0.8-0.8c0-0.4-0.4-0.8-0.8-0.8l-11.3,0.1c-0.4,0-0.8,0.4-0.8,0.8
					C1618.9,290.3,1619.3,290.7,1619.7,290.7"/>
				<path class="st6" d="M1731.4,530.5l26.6-0.5c0.4,0,0.8-0.4,0.8-0.8c0-0.4-0.4-0.8-0.8-0.8l-26.6,0.5c-0.4,0-0.8,0.4-0.8,0.8
					C1730.6,530.1,1731,530.5,1731.4,530.5"/>
				<polyline class="st9" points="1164.4,920.2 1127.7,920.2 1127.7,471.1 1164.4,471.1 1164.4,920.2 				"/>
				<polyline class="st9" points="1473.9,920.2 1437.1,920.2 1437.1,471.1 1473.9,471.1 1473.9,920.2 				"/>
				<path class="st6" d="M1137.4,484v435c0,0.4,0.4,0.8,0.8,0.8c0.4,0,0.8-0.4,0.8-0.8V484c0-0.4-0.4-0.8-0.8-0.8
					C1137.7,483.2,1137.4,483.6,1137.4,484"/>
				<path class="st6" d="M1460.1,484v435c0,0.4,0.4,0.8,0.8,0.8c0.4,0,0.8-0.4,0.8-0.8V484c0-0.4-0.4-0.8-0.8-0.8
					C1460.5,483.2,1460.1,483.6,1460.1,484"/>
				<path class="st6" d="M1105.6,471.9h387.9c0.4,0,0.8-0.4,0.8-0.8c0-0.4-0.4-0.8-0.8-0.8h-387.9c-0.4,0-0.8,0.4-0.8,0.8
					C1104.8,471.5,1105.1,471.9,1105.6,471.9"/>
				<path class="st6" d="M1696.1,514.1c9.9-35.3,11.8-80.4,11.9-114c0-7.6-0.1-14.6-0.2-20.7c0-0.4-0.4-0.8-0.8-0.8
					c-0.4,0-0.8,0.4-0.8,0.8c0.1,6.1,0.2,13.1,0.2,20.7c0,33.5-2,78.5-11.8,113.5c-0.1,0.4,0.1,0.9,0.6,1
					C1695.6,514.8,1696,514.6,1696.1,514.1"/>
				<path class="st8" d="M1619.7,315c0,0,42.3-67.5,102-28.4c21.6,14.1,43,59.2,17,77.6C1712.4,382.8,1619.7,315,1619.7,315"/>
				<path class="st8" d="M1551.1,410.5c17.8-6.1,38.9,3.1,67.2,20c67.9,40.8,91.4,91.3,56.5,108.9c-42.6,21.5-148.6-23.5-150.9-57.4
					C1521.3,442.4,1541,414,1551.1,410.5"/>
				<path class="st6" d="M1616.4,378l1.1,52.6c0,0.4,0.4,0.8,0.8,0.8c0.4,0,0.8-0.4,0.8-0.8l-1.1-52.6c0-0.4-0.4-0.8-0.8-0.8
					C1616.8,377.2,1616.4,377.5,1616.4,378"/>
				<path class="st6" d="M1550.4,410.2l-27.2,71.5c-0.2,0.4,0,0.9,0.5,1c0.4,0.2,0.9,0,1-0.5l27.2-71.5c0.2-0.4,0-0.9-0.5-1
					C1551,409.6,1550.5,409.8,1550.4,410.2"/>
				<path class="st6" d="M1545.6,425.1l-26.4-10.2c-0.4-0.2-0.9,0-1,0.5c-0.2,0.4,0,0.9,0.5,1l26.4,10.2c0.4,0.2,0.9,0,1-0.5
					C1546.2,425.7,1546,425.3,1545.6,425.1"/>
				<path class="st6" d="M1538.6,443.4l-25.8-10.1c-0.4-0.2-0.9,0-1,0.4c-0.2,0.4,0,0.9,0.4,1l25.8,10.1c0.4,0.2,0.9,0,1-0.4
					C1539.2,444,1539,443.5,1538.6,443.4"/>
				<path class="st6" d="M1531.5,462.4l-24.6-11.6c-0.4-0.2-0.9,0-1.1,0.4c-0.2,0.4,0,0.9,0.4,1.1l24.6,11.6c0.4,0.2,0.9,0,1.1-0.4
					C1532,463,1531.9,462.6,1531.5,462.4"/>
				<path class="st6" d="M1739.4,364c0,0-3.7-12.4-11.4-26c-7.7-13.6-19.3-28.5-35.3-33.6c-0.4-0.1-0.9,0.1-1,0.5
					c-0.1,0.4,0.1,0.9,0.5,1c15.4,4.8,26.9,19.4,34.4,32.9c3.8,6.7,6.6,13.1,8.5,17.9c0.9,2.4,1.6,4.3,2.1,5.7
					c0.2,0.7,0.4,1.2,0.5,1.6c0.1,0.4,0.2,0.5,0.2,0.5c0.1,0.4,0.6,0.7,1,0.5C1739.3,364.8,1739.5,364.4,1739.4,364"/>
				<path class="st6" d="M1618.9,317.5L1618.9,317.5c0.9-0.9,16.6-15,43.2-15c1.3,0,2.6,0,3.9,0.1c0.4,0,0.8-0.3,0.8-0.7
					c0-0.4-0.3-0.8-0.8-0.8c-1.3-0.1-2.7-0.1-3.9-0.1c-28,0-44.2,15.3-44.3,15.4c-0.3,0.3-0.3,0.8,0,1.1
					C1618,317.8,1618.5,317.9,1618.9,317.5"/>
				<path class="st6" d="M1583,413.5c10.3,3.7,21.8,9.9,34.9,17.7c0.4,0.2,0.9,0.1,1.1-0.3c0.2-0.4,0.1-0.9-0.3-1.1
					c-13.1-7.9-24.7-14.1-35.2-17.9c-0.4-0.1-0.9,0.1-1,0.5C1582.4,412.9,1582.6,413.3,1583,413.5"/>
				<path class="st6" d="M1525.9,661.5l-6.3-25.4c-0.1-0.4-0.5-0.7-1-0.6c-0.4,0.1-0.7,0.5-0.6,1l6.3,25.4c0.1,0.4,0.5,0.7,1,0.6
					C1525.7,662.3,1526,661.9,1525.9,661.5"/>
				<path class="st7" d="M1236.2,229.2l19.8,101.1c0.1,0.4,0.5,0.7,0.9,0.6c0.4-0.1,0.7-0.5,0.6-0.9l-19.8-101.1
					c-0.1-0.4-0.5-0.7-0.9-0.6C1236.4,228.4,1236.1,228.8,1236.2,229.2"/>
				<path class="st6" d="M1556.5,182.7c-0.7,1.7-1.1,4.5-1.1,7.9c0,5.5,1.1,12.6,4,18.8c2.9,6.2,7.8,11.6,15.4,13.3
					c2,0.4,4.2,0.7,6.4,0.7c10.5,0,22.5-5.1,32.7-15.6c0.3-0.3,0.3-0.8,0-1.1c-0.3-0.3-0.8-0.3-1.1,0c-10,10.2-21.6,15.1-31.6,15.1
					c-2.1,0-4.1-0.2-6-0.6c-7-1.6-11.5-6.4-14.4-12.4c-2.8-5.9-3.8-12.9-3.8-18.2c0-3.3,0.4-6,1-7.3c0.2-0.4,0-0.9-0.4-1
					C1557.1,182.1,1556.7,182.3,1556.5,182.7"/>
				<path class="st6" d="M1381.8,627.3c-0.3,3.5-0.5,7.1-0.5,10.6c0,9.4,1,18.6,2.4,27.3c2.1,12.4,4.8,26.5,7,35
					c0.1,0.4,0.6,0.7,1,0.6c0.4-0.1,0.7-0.5,0.6-1c-2.3-8.4-5-22.5-7-34.8c-1.4-8.6-2.4-17.8-2.4-27c0-3.5,0.1-7,0.5-10.5
					c0-0.4-0.3-0.8-0.7-0.9C1382.3,626.5,1381.9,626.9,1381.8,627.3"/>
				<path class="st6" d="M1127.7,485.5h36.8c0.4,0,0.8-0.4,0.8-0.8c0-0.4-0.4-0.8-0.8-0.8h-36.8c-0.4,0-0.8,0.4-0.8,0.8
					C1126.9,485.2,1127.2,485.5,1127.7,485.5"/>
				<path class="st6" d="M1437.1,485.5h36.8c0.4,0,0.8-0.4,0.8-0.8c0-0.4-0.4-0.8-0.8-0.8h-36.8c-0.4,0-0.8,0.4-0.8,0.8
					C1436.4,485.2,1436.7,485.5,1437.1,485.5"/>
			</g>
		</g>
	</g>
</g>
<g>
	<g>
		<defs>
			<polygon id="SVGID_9_" points="1103.2,921.7 1811,921.7 1811,109 1103.2,109 1103.2,921.7 			"/>
		</defs>
		<defs>
			<polygon id="SVGID_10_" points="1103.2,109 1811,109 1811,921.7 1103.2,921.7 1103.2,109 1103.2,109 			"/>
		</defs>
		<clipPath id="SVGID_11_">
			<use xlink:href="#SVGID_9_"  style="overflow:visible;"/>
		</clipPath>
		<clipPath id="SVGID_12_" class="st11">
			<use xlink:href="#SVGID_10_"  style="overflow:visible;"/>
		</clipPath>
		<g class="st12">
			<defs>
				<polygon id="SVGID_13_" points="1103.2,921.7 1811,921.7 1811,109 1103.2,109 1103.2,921.7 				"/>
			</defs>
			<clipPath id="SVGID_14_">
				<use xlink:href="#SVGID_13_"  style="overflow:visible;"/>
			</clipPath>
			<polyline class="st13" points="1237.1,867.8 1417,568.9 1458.3,732.8 1379.6,867.8 1237.1,867.8 			"/>
			<polyline class="st14" points="1379.6,867.8 1237.1,867.8 1195.6,920.4 1379.6,920.4 1379.6,867.8 			"/>
			<polyline class="st15" points="1379.6,867.8 1419.6,799.2 1287.8,783.6 1237.1,867.8 1379.6,867.8 			"/>
			<path class="st16" d="M1222.6,886h24.3c0.4,0,0.8-0.4,0.8-0.8c0-0.4-0.4-0.8-0.8-0.8h-24.3c-0.4,0-0.8,0.4-0.8,0.8
				C1221.8,885.6,1222.2,886,1222.6,886"/>
			<path class="st16" d="M1212.8,898.6h24.3c0.4,0,0.8-0.4,0.8-0.8c0-0.4-0.4-0.8-0.8-0.8h-24.3c-0.4,0-0.8,0.4-0.8,0.8
				C1212,898.3,1212.4,898.6,1212.8,898.6"/>
			<path class="st16" d="M1340.5,920.4L1340.5,920.4c0.3-0.6,2.7-6.1,8.7-11.4c6-5.3,15.6-10.4,30.3-10.4h0.1c0.4,0,0.8-0.4,0.8-0.8
				c0-0.4-0.4-0.8-0.8-0.8h-0.1c-15.6,0-25.7,5.7-31.9,11.3c-6.2,5.7-8.5,11.4-8.5,11.4c-0.2,0.4,0,0.9,0.4,1
				C1339.9,921,1340.3,920.8,1340.5,920.4"/>
			<path class="st16" d="M1331.1,891.3h-0.8c0,3-1.2,5.6-3.1,7.5c-1.9,1.9-4.6,3.1-7.6,3.1c-3,0-5.6-1.2-7.6-3.1
				c-1.9-1.9-3.1-4.6-3.1-7.5c0-3,1.2-5.6,3.1-7.5c1.9-1.9,4.6-3.1,7.6-3.1c3,0,5.6,1.2,7.6,3.1c1.9,1.9,3.1,4.6,3.1,7.5h1.6
				c0-6.8-5.5-12.3-12.3-12.3c-6.8,0-12.3,5.5-12.3,12.3s5.5,12.3,12.3,12.3c6.8,0,12.3-5.5,12.3-12.3H1331.1"/>
			<path class="st14" d="M1276.8,802.4l131.9,16.1c0.4,0,0.8-0.3,0.9-0.7s-0.3-0.8-0.7-0.9L1277,800.9c-0.4,0-0.8,0.3-0.9,0.7
				C1276.1,802,1276.4,802.4,1276.8,802.4"/>
			<path class="st14" d="M1269.3,869.5l38-63.8c0.2-0.4,0.1-0.9-0.3-1.1c-0.4-0.2-0.9-0.1-1.1,0.3l-38,63.8
				c-0.2,0.4-0.1,0.9,0.3,1.1C1268.5,870,1269,869.9,1269.3,869.5"/>
			<path class="st14" d="M1310,868.2l33.6-58.2c0.2-0.4,0.1-0.9-0.3-1.1c-0.4-0.2-0.9-0.1-1.1,0.3l-33.6,58.1
				c-0.2,0.4-0.1,0.9,0.3,1.1C1309.3,868.7,1309.8,868.6,1310,868.2"/>
			<path class="st14" d="M1346.6,868.2l30.6-54.5c0.2-0.4,0.1-0.9-0.3-1.1c-0.4-0.2-0.9-0.1-1.1,0.3l-30.6,54.5
				c-0.2,0.4-0.1,0.9,0.3,1.1C1345.9,868.7,1346.4,868.6,1346.6,868.2"/>
			<polyline class="st14" points="1417,568.9 1387.4,669.9 1398.5,835.4 1458.3,732.8 1417,568.9 			"/>
			<polyline class="st14" points="1754.6,675.6 1547.9,675.6 1547.9,647.8 1754.6,647.8 1754.6,675.6 			"/>
			<path class="st14" d="M1650.8,675.2l-126.3,244.8c-0.2,0.4,0,0.9,0.3,1.1c0.4,0.2,0.9,0,1.1-0.3L1652.2,676
				c0.2-0.4,0-0.9-0.3-1.1C1651.4,674.7,1651,674.8,1650.8,675.2"/>
			<path class="st14" d="M1650.8,676l127.6,244.4c0.2,0.4,0.7,0.5,1.1,0.3c0.4-0.2,0.5-0.7,0.3-1.1l-127.6-244.4
				c-0.2-0.4-0.7-0.5-1.1-0.3C1650.7,675.1,1650.6,675.6,1650.8,676"/>
			<g class="st14">
				<defs>
					<polygon id="SVGID_15_" points="1104.7,921.4 1810.9,921.4 1810.9,110.6 1104.7,110.6 1104.7,921.4 					"/>
				</defs>
				<clipPath id="SVGID_16_">
					<use xlink:href="#SVGID_15_"  style="overflow:visible;"/>
				</clipPath>
				<path class="st17" d="M1593.4,789.4h116.2c0.4,0,0.8-0.4,0.8-0.8c0-0.4-0.4-0.8-0.8-0.8h-116.2c-0.4,0-0.8,0.4-0.8,0.8
					C1592.6,789,1592.9,789.4,1593.4,789.4"/>
				<polyline class="st18" points="1669.3,241.1 1674.8,302.2 1622.2,344.3 1619.2,277.9 1669.3,241.1 				"/>
				<path class="st18" d="M1430,562.5c-66.7,27.1-47,101.4-38.1,134.6c5.2,19.4,42.8,170.8,42.8,170.8h134.7l-44.2-206.2l58.1-22.1
					l-74.8-107.5C1508.5,532.1,1444.9,556.4,1430,562.5"/>
				<polyline class="st19" points="1434.7,867.8 1416.7,795.8 1549.5,775.4 1569.4,867.8 1434.7,867.8 				"/>
				<path class="st17" d="M1422.1,817.1l132.5-17.5c0.4-0.1,0.7-0.5,0.7-0.9s-0.5-0.7-0.9-0.7l-132.6,17.5c-0.4,0.1-0.7,0.5-0.7,0.9
					C1421.3,816.9,1421.7,817.2,1422.1,817.1"/>
				<path class="st17" d="M1521.2,803.4l15.3,64.7c0.1,0.4,0.5,0.7,1,0.6c0.4-0.1,0.7-0.5,0.6-1l-15.3-64.7c-0.1-0.4-0.5-0.7-1-0.6
					C1521.4,802.5,1521.1,802.9,1521.2,803.4"/>
				<path class="st17" d="M1487.5,807.8l13.3,59.9c0.1,0.4,0.5,0.7,0.9,0.6c0.4-0.1,0.7-0.5,0.6-0.9l-13.3-59.9
					c-0.1-0.4-0.5-0.7-0.9-0.6C1487.7,806.9,1487.4,807.4,1487.5,807.8"/>
				<path class="st17" d="M1454.8,812.1l11.9,55.6c0.1,0.4,0.5,0.7,0.9,0.6c0.4-0.1,0.7-0.5,0.6-0.9l-11.9-55.6
					c-0.1-0.4-0.5-0.7-0.9-0.6C1454.9,811.2,1454.7,811.7,1454.8,812.1"/>
				<path class="st18" d="M1623.6,167.6c-17.5,0.8-49.6,12.1-48.5,50.4c0,0,1.9,31,1.7,41.3c-0.1,8.4,0.4,26.9,16.6,29.4
					c10.4,1.6,45.3,1,45.3,1l30.7-48.6C1669.3,241.1,1670,165.5,1623.6,167.6"/>
				<path class="st17" d="M1647.3,236.1c-19,0-45.6-23.1-23.6-43.8c12.8-12,73-1.6,66.9,20.9
					C1685.3,232.9,1659.6,236.1,1647.3,236.1"/>
				<path class="st17" d="M1621.4,199.7c-6.9,15.1-62.5,41.4-65.6-11.9c-0.4-7.7,6.4-22.5,29.1-12.8
					C1596.1,179.8,1629.1,182.9,1621.4,199.7"/>
				<path class="st17" d="M1580.4,241.4l0.6,18.2c0,0.4,0.4,0.8,0.8,0.8c0.4,0,0.8-0.4,0.8-0.8l-0.6-18.2c0-0.4-0.4-0.8-0.8-0.8
					C1580.7,240.6,1580.4,240.9,1580.4,241.4"/>
				<path class="st17" d="M1598.2,239.4c0.1,2.1-1,3.9-2.4,3.9c-1.4,0.1-2.7-1.6-2.8-3.7c-0.1-2.1,1-3.9,2.4-3.9
					C1596.9,235.6,1598.1,237.3,1598.2,239.4"/>
				<path class="st19" d="M1636.3,296.4c-26,21.4-43.4,68.1-52.5,112c-5.2,25.3-7.7,99.2,20.8,102.7c37.9,4.7,113,1.6,144.7-14.2
					c18.7-9.3,16.1-55.6-6.9-122.5C1731.4,342.6,1692.4,250.3,1636.3,296.4"/>
				<path class="st20" d="M1749.4,497l-136.7-4.8l-104.1,39.9l47.1,118.1c0,0,58.5-2.6,90.3-2.6C1810.8,647.7,1749.4,497,1749.4,497
					"/>
				<polyline class="st19" points="1752,495.3 1755.5,516.8 1568,507.9 1575.5,484.7 1752,495.3 				"/>
				<path class="st17" d="M1752,494.2l-51.7-2.8c-0.4,0-0.8,0.3-0.8,0.7c0,0.4,0.3,0.8,0.8,0.8l51.7,2.8c0.4,0,0.8-0.3,0.8-0.7
					C1752.8,494.6,1752.5,494.2,1752,494.2"/>
				<polyline class="st17" points="1351.2,447.9 1328.9,447.9 1328.9,429.3 1351.2,429.3 1351.2,447.9 				"/>
				<polyline class="st17" points="1380.7,447.9 1358.4,447.9 1358.4,429.3 1380.7,429.3 1380.7,447.9 				"/>
				<polyline class="st17" points="1410.2,447.9 1387.9,447.9 1387.9,429.3 1410.2,429.3 1410.2,447.9 				"/>
				<polyline class="st17" points="1439.4,447.9 1417.1,447.9 1417.1,429.3 1439.4,429.3 1439.4,447.9 				"/>
				<polyline class="st20" points="1493.5,484 1105.6,484 1105.6,458.1 1493.5,458.1 1493.5,484 				"/>
				<polyline class="st17" points="1447.6,441.2 1319.4,441.2 1319.4,458.1 1447.6,458.1 1447.6,441.2 				"/>
				<polyline class="st17" points="1293.6,440.8 1164.4,440.8 1164.4,458.1 1293.6,458.1 1293.6,440.8 				"/>
				<polyline class="st17" points="1240.2,449.5 1216.1,449.5 1216.1,258.3 1240.2,258.3 1240.2,449.5 				"/>
				<polyline class="st17" points="1257.6,200.2 1216.1,258.3 1216.1,330.2 1257.6,330.2 1257.6,200.2 				"/>
				<polyline class="st17" points="1297.2,396.6 1271.6,401.6 1219.1,133.8 1244.7,128.8 1297.2,396.6 				"/>
				<path class="st17" d="M1587.3,271.9c0.1,0,1.7,1,3.9,1c0.9,0,2-0.2,3-0.7c1-0.6,1.9-1.5,2.7-2.8c0.2-0.4,0.1-0.9-0.3-1.1
					c-0.4-0.2-0.9-0.1-1.1,0.3c-0.6,1.1-1.3,1.8-2,2.2c-0.7,0.4-1.5,0.5-2.2,0.5c-0.8,0-1.6-0.2-2.2-0.4c-0.3-0.1-0.5-0.2-0.7-0.3
					l-0.2-0.1l0,0l0,0c-0.4-0.2-0.9-0.1-1.1,0.3C1586.8,271.2,1586.9,271.7,1587.3,271.9"/>
				<path class="st17" d="M1671,221.5c0,0,29.3,34.1,3.8,38C1667,260.6,1644.7,249.6,1671,221.5"/>
				<path class="st18" d="M1636.8,238c0,0,6.7-17.9,22.2-11.8c6.2,2.4,11.7,15,0.5,26.5L1636.8,238"/>
				<path class="st17" d="M1644.7,243.4l17-15.4c0.3-0.3,0.3-0.8,0.1-1.1c-0.3-0.3-0.8-0.4-1.1-0.1l-17,15.4
					c-0.3,0.3-0.4,0.8-0.1,1.1C1643.9,243.7,1644.4,243.7,1644.7,243.4"/>
				<polyline class="st20" points="1584.9,175 1682.4,238.9 1693,223.3 1596.5,163.1 1584.9,175 				"/>
				<path class="st20" d="M1596.5,163.1c0,0,53.2-52.6,109.2,15.7c31.8,38.9,10.7,60.7-18.1,43.8
					C1663.9,208.8,1596.5,163.1,1596.5,163.1"/>
				<path class="st17" d="M1730.6,515.6c0,0,0.1,10.3,0.5,22c0.2,5.8,0.5,12,0.8,17.4c0.4,5.4,0.8,10,1.5,12.8
					c0.8,3.6,2.1,7.9,5.5,11.5c3.4,3.6,8.9,6.3,17.8,6.8c0.4,0,0.8-0.3,0.8-0.7c0-0.4-0.3-0.8-0.7-0.8c-8.6-0.5-13.7-3.1-16.8-6.3
					c-3.1-3.2-4.3-7.2-5.1-10.7c-0.6-2.6-1.1-7.2-1.4-12.6c-0.6-8.1-0.9-17.9-1.1-25.8c-0.1-3.9-0.2-7.3-0.2-9.8c0-2.4,0-3.9,0-3.9
					c0-0.4-0.4-0.8-0.8-0.8C1730.9,514.8,1730.6,515.2,1730.6,515.6"/>
				<path class="st17" d="M1688.3,512c0,0,0,0.1-0.1,0.4c-0.6,2-3.4,11.5-11.1,22c-7.7,10.5-20.4,22-40.5,28.1
					c-13.3,4-32.5,9.3-48.3,13.6c-7.9,2.1-15,4-20.1,5.3c-2.5,0.7-4.6,1.2-6,1.6c-1.4,0.4-2.2,0.6-2.2,0.6c-0.4,0.1-0.7,0.5-0.6,1
					c0.1,0.4,0.5,0.7,1,0.6c0,0,50-13,76.7-21.1c21.9-6.6,35.1-19.5,42.8-30.8c7.7-11.2,10-20.8,10-20.9c0.1-0.4-0.2-0.9-0.6-1
					C1688.8,511.4,1688.4,511.6,1688.3,512"/>
				<polyline class="st17" points="1569.4,867.8 1434.7,867.8 1392.8,920.4 1569.1,920.4 1569.4,867.8 				"/>
				<path class="st21" d="M1420.2,886h24.3c0.4,0,0.8-0.4,0.8-0.8c0-0.4-0.4-0.8-0.8-0.8h-24.3c-0.4,0-0.8,0.4-0.8,0.8
					C1419.4,885.6,1419.7,886,1420.2,886"/>
				<path class="st21" d="M1410.4,898.6h24.3c0.4,0,0.8-0.4,0.8-0.8c0-0.4-0.4-0.8-0.8-0.8h-24.3c-0.4,0-0.8,0.4-0.8,0.8
					C1409.6,898.3,1409.9,898.6,1410.4,898.6"/>
				<path class="st21" d="M1538.1,920.2L1538.1,920.2c0-0.6,0.6-6,4.7-11.2c4.1-5.2,11.8-10.3,26.5-10.3h0.1c0.4,0,0.8-0.4,0.8-0.8
					c0-0.4-0.4-0.8-0.8-0.8h-0.1c-15.6,0-23.9,5.7-28.1,11.5c-4.3,5.8-4.6,11.5-4.6,11.6c0,0.4,0.3,0.8,0.8,0.8
					C1537.7,920.9,1538.1,920.6,1538.1,920.2"/>
				<path class="st21" d="M1528.7,891.3h-0.8c0,3-1.2,5.6-3.1,7.5c-1.9,1.9-4.6,3.1-7.6,3.1s-5.6-1.2-7.6-3.1
					c-1.9-1.9-3.1-4.6-3.1-7.5c0-3,1.2-5.6,3.1-7.5c1.9-1.9,4.6-3.1,7.6-3.1s5.6,1.2,7.6,3.1c1.9,1.9,3.1,4.6,3.1,7.5h1.6
					c0-6.8-5.5-12.3-12.3-12.3s-12.3,5.5-12.3,12.3s5.5,12.3,12.3,12.3s12.3-5.5,12.3-12.3H1528.7"/>
				<path class="st17" d="M1534.6,522.1l50.5,127.2c0.2,0.4,0.6,0.6,1,0.4c0.4-0.2,0.6-0.6,0.4-1L1536,521.5c-0.2-0.4-0.6-0.6-1-0.4
					C1534.6,521.3,1534.4,521.7,1534.6,522.1"/>
				<path class="st17" d="M1692.3,224.3l-95.4-61.8c-0.4-0.2-0.9-0.1-1.1,0.2c-0.2,0.4-0.1,0.9,0.2,1.1l95.4,61.8
					c0.4,0.2,0.9,0.1,1.1-0.2C1692.8,225,1692.7,224.5,1692.3,224.3"/>
				<path class="st17" d="M1603.2,188.6l11.3-13.8c0.3-0.3,0.2-0.8-0.1-1.1c-0.3-0.3-0.8-0.2-1.1,0.1l-11.3,13.8
					c-0.3,0.3-0.2,0.8,0.1,1.1C1602.4,189,1602.9,189,1603.2,188.6"/>
				<path class="st17" d="M1623.7,202.7l11.2-14.6c0.3-0.3,0.2-0.8-0.1-1.1s-0.8-0.2-1.1,0.1l-11.2,14.6c-0.3,0.3-0.2,0.8,0.1,1.1
					S1623.4,203.1,1623.7,202.7"/>
				<path class="st17" d="M1643.2,216.1l10.6-15.6c0.2-0.4,0.2-0.9-0.2-1.1c-0.4-0.2-0.9-0.2-1.1,0.2l-10.6,15.6
					c-0.2,0.4-0.1,0.9,0.2,1.1C1642.4,216.5,1642.9,216.4,1643.2,216.1"/>
				<path class="st17" d="M1663.6,227.3l10.1-14.1c0.3-0.4,0.2-0.9-0.2-1.1c-0.4-0.3-0.9-0.2-1.1,0.2l-10.1,14.1
					c-0.3,0.4-0.2,0.9,0.2,1.1C1662.9,227.7,1663.4,227.6,1663.6,227.3"/>
				<path class="st18" d="M1442.6,385.9c-13.6,4.3-50.5,33-42.1,42.2c2.9,3.1,12.5,4.8,23.8-3.7c0,0-7.7,10.7,4.1,18
					c0,0-1.6,22.9,46.3,8.6c0,0,3.9,16.8,26.4,16.8l22.9-66.8C1523.9,400.9,1469.5,377.3,1442.6,385.9"/>
				<path class="st17" d="M1475.4,450.6c0,0-1.6-3.5-4.9-7c-3.3-3.5-8.5-7-15.6-7c-2.7,0-5.6,0.5-8.7,1.7c-0.4,0.2-0.6,0.6-0.5,1
					c0.2,0.4,0.6,0.6,1,0.5c3-1.1,5.7-1.6,8.2-1.6c6.5,0,11.3,3.2,14.5,6.5c1.6,1.7,2.7,3.3,3.5,4.5c0.4,0.6,0.7,1.1,0.9,1.5
					c0.1,0.2,0.2,0.3,0.2,0.4l0.1,0.1c0.2,0.4,0.7,0.6,1.1,0.4C1475.4,451.5,1475.6,451,1475.4,450.6"/>
				<path class="st17" d="M1429.2,442.2L1429.2,442.2c0-0.1,0-0.4,0-0.9c0-2,0.4-7.2,4-12.4c3.6-5.2,10.5-10.4,23.8-12.5
					c0.4-0.1,0.7-0.5,0.7-0.9c-0.1-0.4-0.5-0.7-0.9-0.7c-13.6,2.1-20.9,7.6-24.8,13.2c-3.9,5.5-4.3,11.1-4.3,13.3c0,0.6,0,1,0,1
					c0,0.4,0.4,0.7,0.9,0.7C1428.9,443,1429.2,442.7,1429.2,442.2"/>
				<path class="st17" d="M1424.9,424.7l0.1-0.2c0.6-1,3.7-5.5,8.4-9.7c4.8-4.2,11.2-8.1,18.6-8.1c1.1,0,2.2,0.1,3.3,0.3
					c0.4,0.1,0.8-0.2,0.9-0.7c0.1-0.4-0.2-0.8-0.7-0.9c-1.2-0.2-2.4-0.3-3.6-0.3c-8.6,0-15.7,4.8-20.7,9.4c-5,4.7-7.9,9.3-7.9,9.4
					c-0.2,0.4-0.1,0.9,0.3,1.1C1424.2,425.2,1424.7,425.1,1424.9,424.7"/>
				<path class="st19" d="M1616.5,342.4l2,97.5c0,0-56.4-27.1-94.6-39l-22.9,66.8c64.7,40.2,146.6,96.3,182.3,66.6
					c33.2-27.6,22-194.1,22-194.1L1616.5,342.4"/>
				<path class="st17" d="M1400.7,420.6c0,0,0.9,0.1,2.1,0.1c1.5,0,3.7-0.2,5.9-1.1c2.2-0.9,4.3-2.6,5.5-5.4
					c0.1-0.2,0.1-0.4,0.1-0.7c0-0.7-0.3-1.2-0.6-1.9c-1-1.8-2.9-3.7-2.9-3.7c-0.3-0.3-0.8-0.3-1.1,0c-0.3,0.3-0.3,0.8,0,1.1l0.1,0.1
					c0.3,0.3,1.1,1.2,1.8,2.1c0.3,0.5,0.7,0.9,0.9,1.3c0.2,0.4,0.3,0.8,0.3,0.9v0l0,0l0,0v0l0,0l0,0c-1.1,2.4-2.8,3.8-4.7,4.6
					c-1.9,0.8-3.9,1-5.3,1c-0.6,0-1,0-1.4-0.1c-0.2,0-0.3,0-0.4,0l-0.1,0c-0.4-0.1-0.8,0.2-0.9,0.7
					C1399.9,420.1,1400.2,420.5,1400.7,420.6"/>
				<path class="st17" d="M1619.7,290.7l11.3-0.1c0.4,0,0.8-0.4,0.8-0.8c0-0.4-0.4-0.8-0.8-0.8l-11.3,0.1c-0.4,0-0.8,0.4-0.8,0.8
					C1618.9,290.3,1619.3,290.7,1619.7,290.7"/>
				<path class="st17" d="M1731.4,530.5l26.6-0.5c0.4,0,0.8-0.4,0.8-0.8c0-0.4-0.4-0.8-0.8-0.8l-26.6,0.5c-0.4,0-0.8,0.4-0.8,0.8
					C1730.6,530.1,1731,530.5,1731.4,530.5"/>
				<polyline class="st20" points="1164.4,920.2 1127.7,920.2 1127.7,471.1 1164.4,471.1 1164.4,920.2 				"/>
				<polyline class="st20" points="1473.9,920.2 1437.1,920.2 1437.1,471.1 1473.9,471.1 1473.9,920.2 				"/>
				<path class="st17" d="M1137.4,484v435c0,0.4,0.4,0.8,0.8,0.8c0.4,0,0.8-0.4,0.8-0.8V484c0-0.4-0.4-0.8-0.8-0.8
					C1137.7,483.2,1137.4,483.6,1137.4,484"/>
				<path class="st17" d="M1460.1,484v435c0,0.4,0.4,0.8,0.8,0.8c0.4,0,0.8-0.4,0.8-0.8V484c0-0.4-0.4-0.8-0.8-0.8
					C1460.5,483.2,1460.1,483.6,1460.1,484"/>
				<path class="st17" d="M1105.6,471.9h387.9c0.4,0,0.8-0.4,0.8-0.8c0-0.4-0.4-0.8-0.8-0.8h-387.9c-0.4,0-0.8,0.4-0.8,0.8
					C1104.8,471.5,1105.1,471.9,1105.6,471.9"/>
				<path class="st17" d="M1696.1,514.1c9.9-35.3,11.8-80.4,11.9-114c0-7.6-0.1-14.6-0.2-20.7c0-0.4-0.4-0.8-0.8-0.8
					c-0.4,0-0.8,0.4-0.8,0.8c0.1,6.1,0.2,13.1,0.2,20.7c0,33.5-2,78.5-11.8,113.5c-0.1,0.4,0.1,0.9,0.6,1
					C1695.6,514.8,1696,514.6,1696.1,514.1"/>
				<path class="st19" d="M1619.7,315c0,0,42.3-67.5,102-28.4c21.6,14.1,43,59.2,17,77.6C1712.4,382.8,1619.7,315,1619.7,315"/>
				<path class="st19" d="M1551.1,410.5c17.8-6.1,38.9,3.1,67.2,20c67.9,40.8,91.4,91.3,56.5,108.9
					c-42.6,21.5-148.6-23.5-150.9-57.4C1521.3,442.4,1541,414,1551.1,410.5"/>
				<path class="st17" d="M1616.4,378l1.1,52.6c0,0.4,0.4,0.8,0.8,0.8c0.4,0,0.8-0.4,0.8-0.8l-1.1-52.6c0-0.4-0.4-0.8-0.8-0.8
					C1616.8,377.2,1616.4,377.5,1616.4,378"/>
				<path class="st17" d="M1550.4,410.2l-27.2,71.5c-0.2,0.4,0,0.9,0.5,1c0.4,0.2,0.9,0,1-0.5l27.2-71.5c0.2-0.4,0-0.9-0.5-1
					C1551,409.6,1550.5,409.8,1550.4,410.2"/>
				<path class="st17" d="M1545.6,425.1l-26.4-10.2c-0.4-0.2-0.9,0-1,0.5c-0.2,0.4,0,0.9,0.5,1l26.4,10.2c0.4,0.2,0.9,0,1-0.5
					C1546.2,425.7,1546,425.3,1545.6,425.1"/>
				<path class="st17" d="M1538.6,443.4l-25.8-10.1c-0.4-0.2-0.9,0-1,0.4c-0.2,0.4,0,0.9,0.4,1l25.8,10.1c0.4,0.2,0.9,0,1-0.4
					C1539.2,444,1539,443.5,1538.6,443.4"/>
				<path class="st17" d="M1531.5,462.4l-24.6-11.6c-0.4-0.2-0.9,0-1.1,0.4c-0.2,0.4,0,0.9,0.4,1.1l24.6,11.6c0.4,0.2,0.9,0,1.1-0.4
					C1532,463,1531.9,462.6,1531.5,462.4"/>
				<path class="st17" d="M1739.4,364c0,0-3.7-12.4-11.4-26c-7.7-13.6-19.3-28.5-35.3-33.6c-0.4-0.1-0.9,0.1-1,0.5
					c-0.1,0.4,0.1,0.9,0.5,1c15.4,4.8,26.9,19.4,34.4,32.9c3.8,6.7,6.6,13.1,8.5,17.9c0.9,2.4,1.6,4.3,2.1,5.7
					c0.2,0.7,0.4,1.2,0.5,1.6c0.1,0.4,0.2,0.5,0.2,0.5c0.1,0.4,0.6,0.7,1,0.5C1739.3,364.8,1739.5,364.4,1739.4,364"/>
				<path class="st17" d="M1618.9,317.5L1618.9,317.5c0.9-0.9,16.6-15,43.2-15c1.3,0,2.6,0,3.9,0.1c0.4,0,0.8-0.3,0.8-0.7
					c0-0.4-0.3-0.8-0.8-0.8c-1.3-0.1-2.7-0.1-3.9-0.1c-28,0-44.2,15.3-44.3,15.4c-0.3,0.3-0.3,0.8,0,1.1
					C1618,317.8,1618.5,317.9,1618.9,317.5"/>
				<path class="st17" d="M1583,413.5c10.3,3.7,21.8,9.9,34.9,17.7c0.4,0.2,0.9,0.1,1.1-0.3c0.2-0.4,0.1-0.9-0.3-1.1
					c-13.1-7.9-24.7-14.1-35.2-17.9c-0.4-0.1-0.9,0.1-1,0.5C1582.4,412.9,1582.6,413.3,1583,413.5"/>
				<path class="st17" d="M1525.9,661.5l-6.3-25.4c-0.1-0.4-0.5-0.7-1-0.6c-0.4,0.1-0.7,0.5-0.6,1l6.3,25.4c0.1,0.4,0.5,0.7,1,0.6
					C1525.7,662.3,1526,661.9,1525.9,661.5"/>
				<path class="st18" d="M1236.2,229.2l19.8,101.1c0.1,0.4,0.5,0.7,0.9,0.6c0.4-0.1,0.7-0.5,0.6-0.9l-19.8-101.1
					c-0.1-0.4-0.5-0.7-0.9-0.6C1236.4,228.4,1236.1,228.8,1236.2,229.2"/>
				<path class="st17" d="M1556.5,182.7c-0.7,1.7-1.1,4.5-1.1,7.9c0,5.5,1.1,12.6,4,18.8c2.9,6.2,7.8,11.6,15.4,13.3
					c2,0.4,4.2,0.7,6.4,0.7c10.5,0,22.5-5.1,32.7-15.6c0.3-0.3,0.3-0.8,0-1.1c-0.3-0.3-0.8-0.3-1.1,0c-10,10.2-21.6,15.1-31.6,15.1
					c-2.1,0-4.1-0.2-6-0.6c-7-1.6-11.5-6.4-14.4-12.4c-2.8-5.9-3.8-12.9-3.8-18.2c0-3.3,0.4-6,1-7.3c0.2-0.4,0-0.9-0.4-1
					C1557.1,182.1,1556.7,182.3,1556.5,182.7"/>
				<path class="st17" d="M1381.8,627.3c-0.3,3.5-0.5,7.1-0.5,10.6c0,9.4,1,18.6,2.4,27.3c2.1,12.4,4.8,26.5,7,35
					c0.1,0.4,0.6,0.7,1,0.6c0.4-0.1,0.7-0.5,0.6-1c-2.3-8.4-5-22.5-7-34.8c-1.4-8.6-2.4-17.8-2.4-27c0-3.5,0.1-7,0.5-10.5
					c0-0.4-0.3-0.8-0.7-0.9C1382.3,626.5,1381.9,626.9,1381.8,627.3"/>
				<path class="st17" d="M1127.7,485.5h36.8c0.4,0,0.8-0.4,0.8-0.8c0-0.4-0.4-0.8-0.8-0.8h-36.8c-0.4,0-0.8,0.4-0.8,0.8
					C1126.9,485.2,1127.2,485.5,1127.7,485.5"/>
				<path class="st17" d="M1437.1,485.5h36.8c0.4,0,0.8-0.4,0.8-0.8c0-0.4-0.4-0.8-0.8-0.8h-36.8c-0.4,0-0.8,0.4-0.8,0.8
					C1436.4,485.2,1436.7,485.5,1437.1,485.5"/>
			</g>
		</g>
	</g>
</g>
<g>
	<path d="M266.6,398.5c-12.4,0-22-3.4-29-10.1s-10.5-16.1-10.5-28.2c0-8.5,1.5-16.4,4.4-23.5c2.9-7.1,7-13.3,12.2-18.7
		c5.2-5.3,11.4-9.4,18.5-12.4c7.1-2.9,14.7-4.4,22.9-4.4c7.4,0,13.3,1.3,17.6,3.8c4.3,2.5,6.5,6.1,6.5,10.6c0,3.6-1.3,6.7-4,9.1
		c-2.6,2.4-6,3.6-10,3.6c-3.9,0-7.5-1-10.9-3c-3.4-2-6.1-5.1-8.2-9.3c-4.8,1.9-9.2,5.1-13,9.5c-3.8,4.4-6.9,9.7-9.1,15.8
		c-2.2,6.1-3.3,12.6-3.3,19.6c0,8,1.5,14.3,4.4,18.8c2.9,4.5,7,6.8,12.3,6.8c4.1,0,7.8-1.1,11-3.2c3.2-2.2,5.8-5.1,7.8-8.8
		c2-3.7,3.1-7.8,3.4-12.3c4.7,0,8.3,0.9,10.8,2.7c2.5,1.8,3.8,4.5,3.8,8.2c0,4.7-1.7,8.9-5.1,12.8c-3.4,3.8-7.9,6.9-13.6,9.2
		C279.9,397.3,273.6,398.5,266.6,398.5z"/>
	<path d="M353.5,398.5c-6.9,0-12.9-1.4-17.9-4.2c-5.1-2.8-9-6.8-11.7-11.9c-2.8-5.1-4.1-11.1-4.1-18c0-6.9,1.2-13.2,3.5-18.9
		s5.6-10.6,9.9-14.8c4.3-4.2,9.3-7.4,15.2-9.7c5.8-2.3,12.2-3.4,19.1-3.4c1.6,0,3.2,0.1,4.7,0.2c1.5,0.1,3.1,0.4,4.9,0.8
		c0.4,1.2,0.8,2.6,1,4.1c0.2,1.5,0.3,3.1,0.3,4.9c-7.6,0-14.1,1.7-19.6,5c-5.5,3.3-9.7,7.8-12.6,13.5c-2.9,5.7-4.4,12-4.4,19
		c0,7.4,1.3,13,4,16.6c2.7,3.6,6.3,5.4,11,5.4c4.1,0,7.7-1.1,10.8-3.3c3.2-2.2,5.8-5.4,7.8-9.5c2.1-4.1,3.4-8.9,4-14.4
		c-3.4-2-5.9-4.4-7.5-7.1c-1.6-2.8-2.5-6-2.5-9.6c0-3,0.6-5.7,1.9-8.2c1.3-2.4,3-4.3,5.1-5.7c2.2-1.4,4.6-2.1,7.3-2.1
		c4.6,0,8.3,1.9,11.1,5.7c2.8,3.8,4.2,8.9,4.2,15.3c0,7.1-1.2,13.7-3.5,19.8s-5.6,11.4-9.7,16c-4.1,4.6-9,8.2-14.4,10.8
		C365.7,397.2,359.8,398.5,353.5,398.5z"/>
	<path d="M435.6,398.5c-7,0-12.2-1.7-15.5-5.2c-3.4-3.5-5.1-8.7-5.1-15.8c0-3.5,0.3-7.3,0.9-11.1c0.6-3.9,1.3-7.8,2.1-11.7
		c0.8-3.9,1.5-7.6,2.1-11.1c0.6-3.5,0.8-6.8,0.8-9.7c0-2.2-0.2-4.3-0.6-6.3c-0.4-1.9-0.9-3.6-1.6-4.9c2.8-1.6,5.8-2.8,8.9-3.8
		c3.1-0.9,5.6-1.4,7.4-1.4c3.2,0,5.5,0.7,6.9,2.1c1.4,1.4,2.1,3.7,2.1,6.9c0,1.8-0.3,4.3-0.8,7.5c-0.5,3.2-1.2,6.7-1.9,10.4
		s-1.6,7.6-2.4,11.4c-0.8,3.8-1.5,7.3-2,10.4c-0.5,3.1-0.8,5.5-0.8,7.2c0,4,0.8,6.9,2.5,8.9c1.6,1.9,4.1,2.9,7.5,2.9
		c4.2,0,8.3-1.6,12.2-4.7c3.9-3.2,7-7.3,9.2-12.5l0.9,20.2l-6.1-3c-2.1,2.7-4.5,5-7.4,7.1c-2.9,2-5.9,3.6-9.2,4.7
		C442.6,397.9,439.2,398.5,435.6,398.5z M476.3,398.5c-4.3,0-7.5-1.2-9.6-3.6c-2.1-2.4-3.1-6.1-3.1-11.1c0-2.1,0.3-5.2,1-9.3
		c0.7-4.1,1.7-9.5,3-16.1c1.3-6.6,3-14.3,5.1-23.2l-6.5-9.7c2.8-1.9,5.5-3.4,8-4.6c2.5-1.2,4.9-2,7.1-2.6c2.2-0.6,4.3-0.8,6.2-0.8
		c3.2,0,5.4,0.6,6.7,1.9c1.3,1.3,1.9,3.5,1.9,6.7c0,0.9-0.2,2.4-0.7,4.7c-0.5,2.3-1.1,5.1-1.9,8.4c-0.8,3.3-1.6,6.9-2.5,10.8
		c-0.8,3.8-1.6,7.8-2.5,11.7c-0.8,4-1.5,7.8-2,11.5c-0.5,3.7-0.8,7-0.8,10c0,4.8,1.1,8.1,3.4,10
		C485.2,396.7,480.9,398.5,476.3,398.5z"/>
	<path d="M525.5,398.5c-4.4,0-7.6-1.2-9.6-3.6c-2-2.4-3-5.8-3-10.4c0-1.6,0.3-4.3,0.8-8c0.6-3.7,1.3-8,2.1-12.9
		c0.9-4.9,1.9-10,3-15.2c1.1-5.3,2.3-10.3,3.5-15l-6.5-8.8c2.7-2,5.4-3.6,8.2-4.9c2.8-1.3,5.5-1.9,8.3-1.9c3.3,0,5.6,0.8,7.1,2.5
		c1.4,1.6,2.1,3.8,2.1,6.3c0,2.9-0.4,5.9-1.3,8.9c-0.9,3-1.9,6.1-3.2,9.4l1.3,0.6c2.2-6,4.6-11,7-15.2c2.4-4.1,5.1-7.3,7.9-9.5
		c2.8-2.2,6.1-3.2,9.8-3.2c3.5,0,6.3,1,8.3,2.9c2,1.9,3,4.5,3,7.9c0,3.8-1.3,7-3.8,9.5c-2.5,2.5-6.2,3.8-11.1,3.8
		c-3.2,0-6.3,1.1-9.2,3.4c-2.9,2.2-5.5,5.3-7.8,9.2c-2.2,3.9-4,8.4-5.3,13.4c-1.3,5.1-1.9,10.3-1.9,15.9c0,4.6,0.8,7.9,2.3,9.8
		C533.6,396.7,529.7,398.5,525.5,398.5z"/>
	<path d="M600.9,398.5c-5.5,0-9.4-1.8-11.7-5.3c-2.3-3.5-3.4-9.5-3.4-18c0-5.7,0-11.2,0.1-16.5c0-5.3-0.1-10.2-0.4-14.8
		c-0.3-4.6-1-8.7-2.1-12.4c-1.1-3.7-2.8-6.8-5.2-9.3c4-3.1,8.3-4.7,13-4.7c3.6,0,6.6,1.1,9,3.2c2.4,2.1,4.1,5.7,5.3,10.8
		c1.2,5.1,1.7,12.1,1.7,21.1c0,3.8,0,7.3-0.1,10.6c0,3.2-0.1,6.2-0.1,8.7c0,2.6,0,4.9-0.1,7.1c0,2.1-0.1,4-0.1,5.5h1.3
		c4.5-5.1,8.2-10.2,11.1-15.2c2.9-5.1,5.2-9.8,6.9-14.1c1.6-4.4,2.8-8.1,3.5-11.2c0.7-3.1,1-5.3,1-6.5c0-1.3-0.2-2.6-0.5-3.9
		c-0.3-1.3-0.8-2.6-1.2-4c-0.5-1.3-0.9-2.5-1.4-3.6c1.3-1.5,2.7-2.6,4.1-3.4c1.4-0.8,2.8-1.2,4.2-1.2c3.3,0,5.8,0.9,7.5,2.8
		c1.7,1.9,2.6,4.6,2.6,8.2s-0.7,7.7-2,12.2c-1.3,4.5-3.1,9.2-5.4,14.1c-2.2,4.9-4.8,9.7-7.5,14.4c-2.5,4.3-4.9,8.1-7.3,11.2
		c-2.3,3.2-4.6,5.8-6.9,7.8c-2.3,2.1-4.7,3.6-7.3,4.7C607,397.9,604.1,398.5,600.9,398.5z M646.4,398.5c-4.1,0-7.4-0.9-9.8-2.6
		c-2.4-1.7-4.1-4.4-5.2-8c-1.1-3.6-1.9-8.1-2.4-13.5l-4-49c2-1.6,4-2.6,5.9-3.2c1.9-0.6,3.6-0.8,5-0.8l4.3,7.6l2.7,55.4h1.3
		c5.2-8.6,9.4-16.4,12.6-23.2c3.2-6.8,5.6-12.7,7.2-17.6c1.6-4.9,2.3-8.7,2.3-11.5c0-3.6-0.8-7-2.5-10.1c2.2-1.5,4.5-2.6,7.1-3.4
		c2.5-0.8,5.1-1.2,7.6-1.2c3.2,0,5.6,0.9,7.3,2.7c1.6,1.8,2.5,4.3,2.5,7.7c0,2.2-0.4,4.8-1.2,7.8c-0.8,2.9-2,6.5-3.8,10.8
		c-1.7,4.3-4,9.4-6.9,15.3c-2.9,6-6.4,13.1-10.6,21.4l2.6,5.7c-1.7,1.8-3.8,3.5-6.3,4.9s-5.1,2.6-7.8,3.4
		C651.5,398.1,648.9,398.5,646.4,398.5z"/>
	<path d="M723.8,398.5c-4.8,0-8.9-1.3-12.6-3.8c-3.6-2.5-6.4-6-8.4-10.6c-2-4.6-3-9.9-3-16.1c0-7.3,1.3-14.1,3.8-20.3
		c2.5-6.2,6-11.5,10.6-16.1c4.6-4.5,10-8,16.1-10.5c6.2-2.5,13-3.7,20.4-3.7c3.8,0,7.5,0.3,11,1c0.5,1,0.9,2.3,1.2,3.9
		c0.3,1.6,0.4,3.2,0.4,5.1c-6,0-11.6,1-16.7,2.8c-5.1,1.9-9.5,4.6-13.2,8c-3.7,3.5-6.6,7.4-8.6,11.9c-2,4.5-3,9.3-3,14.5
		c0,4.8,1,8.6,3,11.3c2,2.7,4.9,4,8.5,4c7.1,0,12.8-4.3,17.1-13c4.3-8.6,7.5-21.8,9.5-39.6c1.8-2.2,3.9-3.9,6.2-5.1
		c2.3-1.1,4.8-1.7,7.4-1.7c2.7,0,4.8,0.7,6.3,2.2c1.5,1.5,2.3,3.6,2.3,6.3c0,2.4-0.5,5.7-1.4,9.7c-0.9,4.1-1.9,8.6-3.1,13.5
		c-1.2,5-2.2,10.1-3.1,15.4c-0.9,5.3-1.4,10.4-1.4,15.3c0,4.7,1.1,7.9,3.4,9.8c-2.2,1.8-4.4,3.2-6.7,4c-2.3,0.9-4.6,1.3-6.9,1.3
		c-3.8,0-6.7-1.1-8.8-3.4c-2.1-2.2-3.1-5.4-3.1-9.6c0-0.9,0.1-1.8,0.2-2.8c0.1-1,0.3-2.1,0.5-3.2l-1.3-0.6
		c-2.8,6.2-6.5,11-11.1,14.4C734.6,396.8,729.4,398.5,723.8,398.5z"/>
	<path d="M801.7,421.1c-6.7,0-11.7-1.2-15-3.6c-3.4-2.4-5.1-5.6-5.1-9.8c0-2.2,0.5-4.2,1.6-6.1c1-1.9,2.2-3.4,3.4-4.4
		c0.9,1.3,2,2.5,3.4,3.7c1.4,1.2,3.2,2.1,5.3,2.9c2.2,0.8,4.7,1.2,7.8,1.2c3,0,6.4-0.7,10-2c3.7-1.3,7.4-3.4,11.3-6.1
		c3.8-2.7,7.6-6.2,11.1-10.3c3.6-4.1,6.8-9,9.6-14.6c2.8-5.6,5.1-11.9,6.7-19c1.7-7.1,2.5-14.9,2.5-23.6c0-1.1,0-2.4-0.1-3.8
		c-0.1-1.4-0.2-2.6-0.4-3.6c1.9-1.5,3.9-2.6,6.1-3.4c2.2-0.8,4.2-1.2,6.2-1.2c3.3,0,5.8,0.8,7.6,2.4c1.8,1.6,2.7,4.1,2.7,7.6
		c0,5.4-0.8,11.5-2.3,18.2c-1.5,6.7-3.8,13.5-6.7,20.5c-3,7-6.6,13.8-10.9,20.3c-4.3,6.6-9.2,12.4-14.8,17.6
		c-5.5,5.2-11.6,9.3-18.3,12.4C816.7,419.6,809.4,421.1,801.7,421.1z M828.6,398.5c-5.6,0-10-1.1-13.3-3.3c-3.2-2.2-5.6-5.2-7.2-8.9
		c-1.6-3.8-2.5-8-3-12.6c-0.4-4.7-0.7-9.5-0.7-14.4c0-5-0.2-9.8-0.4-14.6c-0.2-4.8-0.8-9.1-1.9-13c-1-3.9-2.8-7-5.4-9.3
		c3.9-3.1,8.2-4.7,13-4.7c4.1,0,7.2,1,9.5,3c2.2,2,3.9,4.8,4.9,8.2c1,3.5,1.7,7.3,1.9,11.6c0.2,4.3,0.3,8.7,0.2,13.3
		c-0.1,4.6-0.1,9.1,0.1,13.3c0.1,4.3,0.6,8.1,1.4,11.6c0.8,3.5,2.2,6.2,4.1,8.2c2,2,4.8,3,8.5,3L828.6,398.5z"/>
</g>
<g>
	<path d="M33.2,575.7c-2.8,0-4.9-0.5-6.2-1.5c-1.3-1-2-2.4-2-4c0-0.7,0.2-1.4,0.5-2.1c0.3-0.7,0.7-1.3,1.1-1.8
		c0.4,0.6,0.9,1.1,1.6,1.6c0.6,0.5,1.5,1,2.5,1.3c1,0.4,2.3,0.5,3.8,0.5c1.4,0,3-0.3,4.7-0.9c1.8-0.6,3.7-1.6,5.6-2.9
		c2-1.3,3.8-3,5.7-5c1.8-2,3.5-4.5,5-7.3c1.5-2.8,2.7-6,3.6-9.7s1.3-7.8,1.3-12.3c0-1-0.1-2-0.3-2.8c-0.2-0.8-0.5-1.7-0.9-2.4
		c1.1-0.7,2-1.1,2.9-1.4c0.9-0.2,1.7-0.4,2.5-0.4c1.2,0,2.1,0.4,2.8,1.3c0.7,0.8,1,2,1,3.5c0,2.7-0.3,5.5-0.8,8.4
		c-0.5,3-1.3,5.9-2.3,8.9c-1,3-2.3,5.9-3.8,8.7c-1.5,2.8-3.3,5.4-5.2,7.9c-2,2.4-4.1,4.6-6.5,6.4c-2.4,1.8-4.9,3.3-7.7,4.3
		C39.2,575.2,36.3,575.7,33.2,575.7z M48.3,564.5c-2.3,0-4.2-0.4-5.7-1.3c-1.5-0.9-2.6-2-3.4-3.5s-1.4-3.2-1.7-5.1
		c-0.4-1.9-0.6-3.9-0.6-6.1c-0.1-2.1-0.1-4.3-0.2-6.5c0-2.2-0.1-4.2-0.3-6.3c-0.2-2-0.5-3.8-1.1-5.5c-0.5-1.6-1.3-3-2.4-4
		c1.5-1.2,3.1-1.7,4.7-1.7c1.8,0,3.2,0.5,4.2,1.6c1,1,1.7,2.4,2.1,4.2c0.4,1.8,0.7,3.7,0.8,5.9c0.1,2.2,0.1,4.4,0.1,6.8
		c0,2.3,0,4.6,0.1,6.8c0.1,2.2,0.4,4.1,0.9,5.9c0.5,1.8,1.2,3.2,2.3,4.2c1.1,1,2.6,1.6,4.5,1.6L48.3,564.5z"/>
	<path d="M87.5,564.3c-2.7,0-5-0.6-7-1.7c-2-1.1-3.5-2.8-4.6-4.8c-1.1-2.1-1.6-4.5-1.6-7.3c0-2.8,0.5-5.4,1.4-7.7
		c0.9-2.3,2.2-4.4,3.9-6c1.7-1.7,3.7-3,6-3.9c2.3-0.9,4.8-1.4,7.6-1.4c0.7,0,1.4,0,2,0.1s1.3,0.2,2,0.3c0.2,0.4,0.4,0.9,0.5,1.4
		c0.1,0.5,0.1,1.1,0.1,1.7c-3.3,0-6.2,0.7-8.5,2.1s-4.2,3.3-5.4,5.7c-1.2,2.4-1.8,5.1-1.8,8.1c0,3.1,0.6,5.5,1.7,7.1
		c1.1,1.6,2.7,2.4,4.7,2.4c1.9,0,3.5-0.5,5-1.6c1.5-1,2.7-2.5,3.7-4.4c1-1.9,1.6-4.1,1.8-6.7c-1.4-0.8-2.4-1.8-3.1-2.9
		c-0.7-1.1-1-2.4-1-3.9c0-1.1,0.2-2.1,0.7-2.9c0.4-0.8,1-1.5,1.8-2c0.8-0.5,1.6-0.7,2.5-0.7c1.8,0,3.1,0.7,4.2,2.2
		c1,1.5,1.5,3.5,1.5,6.1c0,2.9-0.5,5.6-1.4,8.1c-0.9,2.5-2.2,4.7-3.9,6.6c-1.7,1.9-3.6,3.4-5.8,4.5
		C92.4,563.7,90.1,564.3,87.5,564.3z"/>
	<path d="M121.7,564.3c-2.8,0-5-0.7-6.3-2.1c-1.4-1.4-2.1-3.6-2.1-6.4c0-1.5,0.1-3,0.4-4.7c0.2-1.7,0.5-3.3,0.9-4.9
		c0.4-1.6,0.7-3.2,0.9-4.7c0.2-1.5,0.4-2.8,0.4-4.1c0-0.8-0.1-1.6-0.2-2.4c-0.1-0.7-0.3-1.4-0.6-1.9c0.9-0.5,1.9-1,2.9-1.3
		c1-0.3,1.8-0.5,2.5-0.5c1.2,0,2,0.3,2.5,0.8c0.5,0.5,0.8,1.5,0.8,2.7c0,0.8-0.1,1.8-0.3,3.1c-0.2,1.3-0.5,2.7-0.8,4.3
		c-0.3,1.6-0.6,3.1-1,4.7c-0.3,1.6-0.6,3-0.8,4.3c-0.2,1.3-0.3,2.3-0.3,3c0,1.8,0.4,3.1,1.2,4c0.8,0.9,1.9,1.3,3.4,1.3
		c1.9,0,3.7-0.7,5.4-2.1c1.7-1.4,3-3.3,3.9-5.7l-0.1,8.1l-2.2-1.1c-0.8,1.1-1.7,2-2.9,2.8c-1.1,0.8-2.4,1.5-3.7,1.9
		C124.3,564,123,564.3,121.7,564.3z M137.1,564.3c-1.5,0-2.6-0.4-3.3-1.3c-0.7-0.9-1.1-2.3-1.1-4.2c0-0.9,0.1-2.2,0.4-4
		c0.3-1.8,0.7-4.1,1.3-6.9c0.6-2.8,1.4-6.3,2.3-10.3l-2.4-3.5c0.8-0.6,1.7-1.1,2.5-1.5c0.8-0.4,1.7-0.7,2.5-0.9
		c0.8-0.2,1.6-0.3,2.3-0.3c1.2,0,2,0.2,2.5,0.7c0.5,0.5,0.7,1.3,0.7,2.5c0,0.3-0.1,0.9-0.3,1.9c-0.2,1-0.5,2.2-0.8,3.6
		c-0.3,1.4-0.7,2.9-1.1,4.6c-0.4,1.7-0.7,3.4-1.1,5.1c-0.4,1.8-0.6,3.4-0.8,5c-0.2,1.6-0.3,3.1-0.3,4.4c0,1.6,0.4,2.7,1.1,3.4
		C140.2,563.7,138.7,564.3,137.1,564.3z"/>
	<path d="M157.4,564.3c-1.5,0-2.6-0.4-3.3-1.2c-0.7-0.8-1.1-2.1-1.1-3.8c0-0.7,0.1-1.8,0.3-3.4c0.2-1.6,0.5-3.4,0.9-5.6
		c0.4-2.1,0.9-4.3,1.4-6.6c0.5-2.3,1-4.4,1.5-6.5l-2.4-3.1c1-0.8,2-1.4,3-1.9c1-0.5,2-0.7,3-0.7c1.2,0,2,0.3,2.5,0.9
		c0.5,0.6,0.8,1.4,0.8,2.3c0,1.2-0.2,2.4-0.6,3.7c-0.4,1.2-0.9,2.6-1.4,4l0.5,0.3c1-2.5,2.1-4.6,3.1-6.3c1.1-1.7,2.2-3,3.4-3.8
		c1.2-0.8,2.4-1.3,3.8-1.3c1.3,0,2.3,0.3,3,0.9c0.7,0.6,1.1,1.6,1.1,2.8c0,1.4-0.5,2.5-1.5,3.3c-1,0.8-2.3,1.3-4.1,1.3
		c-1.4,0-2.7,0.5-4,1.6s-2.4,2.5-3.4,4.4s-1.8,3.9-2.4,6.2s-0.9,4.7-0.9,7.3c0,1.5,0.3,2.7,0.8,3.4
		C160.2,563.7,158.8,564.3,157.4,564.3z"/>
	<path d="M200.4,575.4c-2.8,0-5-0.5-6.6-1.4c-1.6-0.9-2.5-2.1-2.5-3.6c0-0.8,0.3-1.7,0.8-2.6c0.5-0.9,1.2-1.6,2-2.1
		c0.8,1.4,1.8,2.4,3.1,3.1c1.2,0.7,2.7,1,4.3,1c1.4,0,2.9-0.3,4.5-1c1.6-0.7,3.1-1.8,4.7-3.3c1.5-1.5,2.9-3.7,4.1-6.3
		c1.2-2.7,2.1-6,2.8-10c0.7-4,0.9-8.8,0.7-14.4c0.9-0.9,1.7-1.5,2.3-1.8s1.4-0.5,2.1-0.5c1.8,0,2.7,0.8,2.7,2.5
		c0,4.1-0.3,8.1-0.8,12c-0.5,3.9-1.4,7.6-2.6,11c-1.2,3.4-2.8,6.4-4.7,9c-2,2.6-4.3,4.6-7.1,6.1C207.3,574.7,204,575.4,200.4,575.4z
		 M203.6,562.6c-2,0-3.7-0.5-5.2-1.5c-1.5-1-2.7-2.4-3.5-4.2c-0.8-1.8-1.2-3.9-1.2-6.4c0-2.7,0.5-5.3,1.4-7.7
		c0.9-2.4,2.3-4.4,4.1-6.1c1.8-1.7,3.9-3.1,6.4-4c2.5-1,5.3-1.5,8.4-1.5c1.7,0,3.3,0.1,4.7,0.4c0.2,0.4,0.4,0.9,0.5,1.4
		c0.1,0.5,0.2,1.1,0.2,1.7c-2.7,0-5.1,0.4-7.3,1.1c-2.2,0.8-4.1,1.8-5.7,3.2c-1.6,1.4-2.8,3-3.7,4.8c-0.8,1.8-1.3,3.9-1.3,6
		c0,2.4,0.5,4.2,1.4,5.5c1,1.3,2.3,2,4,2c0.8,0,1.7-0.2,2.7-0.6s2-1.1,3-2.1c1-1,1.9-2.4,2.8-4.1c0.8-1.7,1.5-3.9,2.1-6.5
		s0.8-5.7,0.8-9.3l0.2,20.3H215c-1.2,2.4-2.8,4.2-4.9,5.6S205.9,562.6,203.6,562.6z"/>
	<path d="M240.9,564.3c-1.9,0-3.6-0.5-5.1-1.5c-1.5-1-2.6-2.5-3.4-4.3c-0.8-1.9-1.2-4-1.2-6.5c0-3,0.5-5.7,1.6-8.2
		c1-2.5,2.5-4.7,4.3-6.5c1.8-1.9,4-3.3,6.5-4.3c2.5-1,5.2-1.5,8.2-1.5c1.5,0,3.1,0.1,4.7,0.4c0.2,0.4,0.4,0.8,0.5,1.4
		c0.1,0.5,0.2,1.1,0.2,1.7c-2.8,0-5.3,0.4-7.5,1.2c-2.2,0.8-4.1,2-5.7,3.5c-1.6,1.5-2.8,3.2-3.6,5.2c-0.8,2-1.3,4.1-1.3,6.4
		c0,2.2,0.4,3.9,1.3,5.1c0.9,1.2,2.2,1.8,3.8,1.8c3.1,0,5.6-1.9,7.5-5.8c1.9-3.9,3.4-9.7,4.3-17.5c0.6-0.7,1.2-1.2,2-1.6
		c0.8-0.4,1.6-0.6,2.5-0.6c1,0,1.8,0.3,2.3,0.8c0.5,0.5,0.8,1.2,0.8,2.1c0,1.1-0.2,2.5-0.6,4.2c-0.4,1.7-0.8,3.6-1.3,5.8
		c-0.5,2.1-1,4.3-1.3,6.6c-0.4,2.3-0.6,4.6-0.6,7c0,1.5,0.4,2.7,1.2,3.4c-0.7,0.6-1.4,1-2.2,1.3c-0.8,0.3-1.5,0.4-2.3,0.4
		c-1.4,0-2.4-0.4-3.2-1.2s-1.1-2-1.1-3.6c0-0.4,0-0.9,0.1-1.3c0.1-0.5,0.1-1,0.2-1.5l-0.5-0.3c-1.2,2.5-2.7,4.4-4.6,5.8
		C245.3,563.6,243.2,564.3,240.9,564.3z"/>
	<path d="M275.3,540c-1.1,0-1.8-0.2-2.2-0.5c-0.4-0.4-0.6-0.9-0.6-1.7c0-0.4,0.1-0.9,0.2-1.4c0.1-0.5,0.3-1,0.7-1.5
		c0.6,0.2,1.4,0.3,2.3,0.4c0.9,0.1,1.8,0.1,2.5,0.1c1.9,0,3.8-0.2,5.7-0.6c1.9-0.4,3.8-0.6,5.7-0.6c1.1,0,1.8,0.2,2.2,0.6
		c0.4,0.4,0.6,1,0.6,1.8c0,0.4-0.1,0.8-0.2,1.3c-0.1,0.5-0.3,1-0.7,1.5c-0.6-0.2-1.3-0.3-2.2-0.4c-0.9-0.1-1.7-0.1-2.5-0.1
		c-1.9,0-3.8,0.2-5.7,0.6C279.1,539.9,277.2,540,275.3,540z M278.4,564.3c-0.8,0-1.5-0.1-2.1-0.4c-0.7-0.3-1.2-0.8-1.6-1.5
		c-0.4-0.7-0.6-1.8-0.6-3.3c0-1.4,0.2-3.1,0.5-4.9c0.3-1.8,0.7-3.6,1.2-5.6c0.5-1.9,0.9-3.8,1.4-5.6c0.5-1.8,0.9-3.5,1.2-5.1
		c0.3-1.6,0.5-2.9,0.5-4c0-0.8-0.1-1.6-0.2-2.5c-0.1-0.9-0.4-1.8-0.6-2.7c0.8-0.8,1.8-1.4,3-1.9c1.2-0.5,2.4-0.7,3.6-0.7
		c1.2,0,2,0.3,2.5,0.8c0.5,0.5,0.7,1.3,0.7,2.5c0,0.9-0.2,2.1-0.6,3.6c-0.4,1.5-0.9,3.2-1.5,5.1c-0.6,1.9-1.2,4-1.8,6.2
		c-0.6,2.2-1.1,4.5-1.5,6.9c-0.4,2.4-0.6,4.8-0.7,7.3l2.1,3.5c-0.8,0.8-1.7,1.4-2.7,1.7C280.2,564.1,279.3,564.3,278.4,564.3z"/>
	<path d="M307.2,564.3c-3.9,0-7-1.2-9.2-3.5c-2.2-2.3-3.4-5.5-3.4-9.5c0-2.9,0.5-5.5,1.5-8c1-2.4,2.4-4.6,4.1-6.3
		c1.8-1.8,3.8-3.2,6.2-4.2c2.4-1,5-1.5,7.8-1.5c2.9,0,5.2,0.7,6.8,2c1.6,1.3,2.5,3.2,2.5,5.6c0,2.5-0.9,4.6-2.7,6.4
		c-1.8,1.8-4.3,3.1-7.7,4c-3.4,0.9-7.4,1.4-12.2,1.4l0.6-3.3c4.8,0,8.5-0.8,11.1-2.2c2.6-1.5,4-3.5,4-6.1c0-1.1-0.3-2-1-2.6
		c-0.7-0.7-1.5-1-2.7-1c-1.4,0-2.8,0.4-4.1,1.2c-1.3,0.8-2.4,2-3.4,3.5c-1,1.5-1.8,3.2-2.3,5.1c-0.6,2-0.8,4-0.8,6.2
		c0,2.7,0.5,4.8,1.5,6.3c1,1.5,2.3,2.3,4.1,2.3c2.1,0,3.9-0.7,5.3-2.1c1.4-1.4,2.1-3.3,2.2-5.6c1.6,0,2.8,0.3,3.7,0.9
		c0.9,0.6,1.3,1.5,1.3,2.7c0,1.4-0.6,2.8-1.7,4c-1.2,1.2-2.7,2.3-4.7,3C311.9,563.9,309.7,564.3,307.2,564.3z"/>
	<path d="M337.2,564.3c-1.9,0-3.2-0.6-3.9-1.8c-0.7-1.2-1.1-3.3-1.1-6.3c0-2.4,0-4.8,0.1-7.1c0-2.3,0-4.5-0.1-6.5
		c-0.1-2-0.4-3.9-0.9-5.5s-1.2-3-2.2-4.2c1.4-1.1,2.9-1.6,4.5-1.6c1.5,0,2.7,0.5,3.5,1.4c0.9,0.9,1.5,2.5,1.9,4.7
		c0.4,2.2,0.6,5.3,0.6,9.2c0,1.9,0,3.6,0,5s0,2.5,0,3.5c0,1,0,1.8,0,2.4c0,0.7,0,1.2,0,1.7h0.5c2.1-2.5,3.8-4.9,5.1-7.2
		c1.3-2.3,2.4-4.4,3.1-6.3c0.7-1.9,1.2-3.4,1.5-4.6c0.3-1.2,0.4-2,0.4-2.3c0-0.5-0.1-0.9-0.3-1.5c-0.2-0.5-0.4-1-0.7-1.5
		c-0.3-0.5-0.5-0.9-0.6-1.2c0.6-0.6,1.2-1,1.8-1.2c0.5-0.3,1.1-0.4,1.6-0.4c1.2,0,2.1,0.4,2.7,1.1c0.6,0.7,1,1.8,1,3.1
		s-0.3,2.8-0.8,4.4c-0.5,1.6-1.2,3.4-2.1,5.2c-0.9,1.9-2,3.9-3.2,6.1c-1.2,2.1-2.4,3.9-3.4,5.4c-1,1.5-2,2.6-2.9,3.5
		c-0.9,0.9-1.9,1.5-2.8,1.9C339.4,564.1,338.3,564.3,337.2,564.3z M355.6,564.3c-1.5,0-2.6-0.3-3.5-1c-0.8-0.7-1.4-1.6-1.8-2.9
		c-0.4-1.3-0.6-2.8-0.7-4.7l-1.6-21.3c0.6-0.6,1.2-1,2-1.2c0.7-0.2,1.4-0.3,2.1-0.3l1.6,3.1l0.9,23.2h0.5c2.3-3.8,4.1-7.1,5.5-9.9
		c1.4-2.9,2.4-5.3,3.1-7.3c0.7-2,1-3.6,1-4.7c0-1.6-0.3-3-1-4.2c0.9-0.6,1.7-1,2.6-1.2s1.7-0.4,2.5-0.4c1.1,0,2,0.4,2.6,1.1
		c0.6,0.7,0.9,1.7,0.9,3c0,1-0.2,2.2-0.6,3.5c-0.4,1.4-1,3-1.8,4.9c-0.8,1.9-1.8,4.1-3.1,6.7c-1.2,2.5-2.8,5.4-4.6,8.7l0.9,2
		c-0.6,0.6-1.3,1.1-2.1,1.6s-1.7,0.8-2.7,1.1C357.3,564.1,356.4,564.3,355.6,564.3z"/>
	<path d="M387.6,564.3c-1.9,0-3.6-0.5-5.1-1.5c-1.5-1-2.6-2.5-3.4-4.3c-0.8-1.9-1.2-4-1.2-6.5c0-3,0.5-5.7,1.6-8.2
		c1-2.5,2.5-4.7,4.3-6.5c1.8-1.9,4-3.3,6.5-4.3c2.5-1,5.2-1.5,8.2-1.5c1.5,0,3.1,0.1,4.7,0.4c0.2,0.4,0.4,0.8,0.5,1.4
		c0.1,0.5,0.2,1.1,0.2,1.7c-2.8,0-5.3,0.4-7.5,1.2c-2.2,0.8-4.1,2-5.7,3.5c-1.6,1.5-2.8,3.2-3.6,5.2c-0.8,2-1.3,4.1-1.3,6.4
		c0,2.2,0.4,3.9,1.3,5.1c0.9,1.2,2.2,1.8,3.8,1.8c3.1,0,5.6-1.9,7.5-5.8c1.9-3.9,3.4-9.7,4.3-17.5c0.6-0.7,1.2-1.2,2-1.6
		c0.8-0.4,1.6-0.6,2.5-0.6c1,0,1.8,0.3,2.3,0.8c0.5,0.5,0.8,1.2,0.8,2.1c0,1.1-0.2,2.5-0.6,4.2c-0.4,1.7-0.8,3.6-1.3,5.8
		c-0.5,2.1-1,4.3-1.3,6.6c-0.4,2.3-0.6,4.6-0.6,7c0,1.5,0.4,2.7,1.2,3.4c-0.7,0.6-1.4,1-2.2,1.3c-0.8,0.3-1.5,0.4-2.3,0.4
		c-1.4,0-2.4-0.4-3.2-1.2s-1.1-2-1.1-3.6c0-0.4,0-0.9,0.1-1.3c0.1-0.5,0.1-1,0.2-1.5l-0.5-0.3c-1.2,2.5-2.7,4.4-4.6,5.8
		C391.9,563.6,389.8,564.3,387.6,564.3z"/>
	<path d="M418.1,573.5c-2.5,0-4.4-0.4-5.6-1.3c-1.2-0.9-1.8-2.1-1.8-3.6c0-0.7,0.2-1.3,0.5-2c0.3-0.7,0.7-1.2,1-1.6
		c0.4,0.5,0.9,1,1.4,1.4c0.5,0.5,1.2,0.8,2.1,1.1c0.9,0.3,1.9,0.4,3.2,0.4c1.2,0,2.6-0.3,4.1-0.8c1.5-0.5,3.1-1.3,4.7-2.4
		c1.6-1.1,3.2-2.5,4.7-4.2c1.5-1.7,2.9-3.8,4.2-6.1c1.2-2.4,2.2-5.1,3-8.2c0.7-3.1,1.1-6.6,1.1-10.4c0-0.4,0-0.9,0-1.5
		c0-0.6-0.1-1-0.1-1.4c0.8-0.6,1.5-1,2.2-1.2c0.7-0.3,1.4-0.4,2.1-0.4c1,0,1.8,0.3,2.5,0.8c0.6,0.5,1,1.5,1,2.8
		c0,2.5-0.3,5.1-0.9,7.9c-0.6,2.8-1.5,5.7-2.7,8.6c-1.2,2.9-2.7,5.7-4.4,8.3c-1.7,2.6-3.7,5-6,7c-2.3,2.1-4.7,3.7-7.4,4.9
		C424.1,572.9,421.2,573.5,418.1,573.5z M430.5,564.3c-2.3,0-4.1-0.4-5.5-1.3s-2.3-2.1-2.9-3.7c-0.6-1.5-1-3.3-1.2-5.2
		c-0.2-1.9-0.3-3.9-0.3-6c0-2.1-0.1-4.1-0.2-6c-0.1-2-0.4-3.7-0.8-5.3c-0.4-1.6-1.2-2.9-2.2-3.8c1.3-1.1,2.8-1.6,4.4-1.6
		c1.6,0,2.8,0.4,3.7,1.3c0.9,0.8,1.5,2,1.9,3.4c0.4,1.4,0.6,3.1,0.7,4.8c0.1,1.8,0.1,3.6,0.1,5.5c0,1.9,0,3.7,0.1,5.5
		c0.1,1.8,0.3,3.4,0.7,4.8c0.4,1.4,1,2.6,1.9,3.4c0.9,0.8,2.1,1.3,3.7,1.3L430.5,564.3z"/>
	<path d="M474.6,540c-1.1,0-1.8-0.2-2.2-0.5c-0.4-0.4-0.6-0.9-0.6-1.7c0-0.4,0.1-0.9,0.2-1.4c0.1-0.5,0.3-1,0.7-1.5
		c0.6,0.2,1.4,0.3,2.3,0.4c0.9,0.1,1.8,0.1,2.5,0.1c1.9,0,3.8-0.2,5.7-0.6c1.9-0.4,3.8-0.6,5.7-0.6c1.1,0,1.8,0.2,2.2,0.6
		c0.4,0.4,0.6,1,0.6,1.8c0,0.4-0.1,0.8-0.2,1.3c-0.1,0.5-0.3,1-0.7,1.5c-0.6-0.2-1.3-0.3-2.2-0.4c-0.9-0.1-1.7-0.1-2.5-0.1
		c-1.9,0-3.8,0.2-5.7,0.6C478.4,539.9,476.5,540,474.6,540z M477.7,564.3c-0.8,0-1.5-0.1-2.1-0.4c-0.7-0.3-1.2-0.8-1.6-1.5
		c-0.4-0.7-0.6-1.8-0.6-3.3c0-1.4,0.2-3.1,0.5-4.9c0.3-1.8,0.7-3.6,1.2-5.6c0.5-1.9,0.9-3.8,1.4-5.6c0.5-1.8,0.9-3.5,1.2-5.1
		c0.3-1.6,0.5-2.9,0.5-4c0-0.8-0.1-1.6-0.2-2.5c-0.1-0.9-0.4-1.8-0.6-2.7c0.8-0.8,1.8-1.4,3-1.9c1.2-0.5,2.4-0.7,3.6-0.7
		c1.2,0,2,0.3,2.5,0.8c0.5,0.5,0.7,1.3,0.7,2.5c0,0.9-0.2,2.1-0.6,3.6c-0.4,1.5-0.9,3.2-1.5,5.1c-0.6,1.9-1.2,4-1.8,6.2
		c-0.6,2.2-1.1,4.5-1.5,6.9c-0.4,2.4-0.6,4.8-0.7,7.3l2.1,3.5c-0.8,0.8-1.7,1.4-2.7,1.7C479.5,564.1,478.6,564.3,477.7,564.3z"/>
	<path d="M507.3,564.3c-2.7,0-5-0.6-7-1.7c-2-1.1-3.5-2.8-4.6-4.8c-1.1-2.1-1.6-4.5-1.6-7.3c0-2.8,0.5-5.4,1.4-7.7
		c0.9-2.3,2.2-4.4,3.9-6c1.7-1.7,3.7-3,6-3.9c2.3-0.9,4.8-1.4,7.6-1.4c0.7,0,1.4,0,2,0.1s1.3,0.2,2,0.3c0.2,0.4,0.4,0.9,0.5,1.4
		c0.1,0.5,0.1,1.1,0.1,1.7c-3.3,0-6.2,0.7-8.5,2.1s-4.2,3.3-5.4,5.7c-1.2,2.4-1.8,5.1-1.8,8.1c0,3.1,0.6,5.5,1.7,7.1
		c1.1,1.6,2.7,2.4,4.7,2.4c1.9,0,3.5-0.5,5-1.6c1.5-1,2.7-2.5,3.7-4.4c1-1.9,1.6-4.1,1.8-6.7c-1.4-0.8-2.4-1.8-3.1-2.9
		c-0.7-1.1-1-2.4-1-3.9c0-1.1,0.2-2.1,0.7-2.9c0.4-0.8,1-1.5,1.8-2c0.8-0.5,1.6-0.7,2.5-0.7c1.8,0,3.1,0.7,4.2,2.2
		c1,1.5,1.5,3.5,1.5,6.1c0,2.9-0.5,5.6-1.4,8.1c-0.9,2.5-2.2,4.7-3.9,6.6c-1.7,1.9-3.6,3.4-5.8,4.5
		C512.2,563.7,509.8,564.3,507.3,564.3z"/>
	<path d="M561.4,564.3c-3.9,0-7-1.2-9.2-3.5c-2.2-2.3-3.4-5.5-3.4-9.5c0-2.9,0.5-5.5,1.5-8c1-2.4,2.4-4.6,4.1-6.3
		c1.8-1.8,3.8-3.2,6.2-4.2c2.4-1,5-1.5,7.8-1.5c2.9,0,5.2,0.7,6.8,2c1.6,1.3,2.5,3.2,2.5,5.6c0,2.5-0.9,4.6-2.7,6.4
		c-1.8,1.8-4.3,3.1-7.7,4c-3.4,0.9-7.4,1.4-12.2,1.4l0.6-3.3c4.8,0,8.5-0.8,11.1-2.2c2.6-1.5,4-3.5,4-6.1c0-1.1-0.3-2-1-2.6
		c-0.7-0.7-1.5-1-2.7-1c-1.4,0-2.8,0.4-4.1,1.2c-1.3,0.8-2.4,2-3.4,3.5c-1,1.5-1.8,3.2-2.3,5.1c-0.6,2-0.8,4-0.8,6.2
		c0,2.7,0.5,4.8,1.5,6.3c1,1.5,2.3,2.3,4.1,2.3c2.1,0,3.9-0.7,5.3-2.1c1.4-1.4,2.1-3.3,2.2-5.6c1.6,0,2.8,0.3,3.7,0.9
		c0.9,0.6,1.3,1.5,1.3,2.7c0,1.4-0.6,2.8-1.7,4c-1.2,1.2-2.7,2.3-4.7,3C566.1,563.9,563.9,564.3,561.4,564.3z"/>
	<path d="M588.8,564.3c-1.5,0-2.6-0.4-3.3-1.1c-0.7-0.8-1.1-1.9-1.1-3.5c0-0.8,0.1-2,0.3-3.6c0.2-1.6,0.6-3.5,1-5.7
		c0.4-2.1,0.9-4.4,1.4-6.7c0.5-2.3,1-4.5,1.5-6.6l-2.5-3.1c1-0.8,2.2-1.4,3.5-1.9c1.3-0.5,2.5-0.7,3.7-0.7c1.2,0,2,0.3,2.6,0.8
		c0.5,0.5,0.8,1.3,0.8,2.5c0,0.9-0.1,1.9-0.4,3c-0.3,1.1-0.7,2.1-1.1,3l0.5,0.3c1.9-3.3,4-5.7,6.3-7.3c2.3-1.6,4.9-2.4,7.7-2.4
		c2.3,0,3.9,0.6,5,1.7c1.1,1.1,1.6,2.8,1.6,5.1c0,1.5-0.2,3.2-0.5,4.9c-0.4,1.7-0.8,3.5-1.2,5.3c-0.5,1.8-0.9,3.6-1.2,5.4
		c-0.4,1.8-0.5,3.6-0.5,5.5c0,1.5,0.3,2.7,0.8,3.4c-1.3,1.2-2.7,1.8-4.1,1.8c-1.5,0-2.6-0.4-3.3-1.1c-0.7-0.8-1.1-1.9-1.1-3.5
		c0-1.5,0.2-3.1,0.5-4.8c0.3-1.7,0.7-3.5,1.2-5.2c0.4-1.8,0.8-3.4,1.1-5c0.3-1.6,0.5-2.9,0.5-4.1c0-1.2-0.2-2.1-0.7-2.7
		c-0.5-0.6-1.1-0.9-2.1-0.9c-1.3,0-2.6,0.4-3.9,1.2c-1.3,0.8-2.5,1.9-3.6,3.3c-1.1,1.4-2.2,3-3.1,4.9c-0.9,1.9-1.6,3.9-2.1,6
		c-0.5,2.2-0.8,4.4-0.8,6.7c0,1.5,0.2,2.7,0.7,3.4C591.6,563.7,590.2,564.3,588.8,564.3z"/>
	<path d="M632.8,564.3c-1.9,0-3.6-0.5-5.1-1.5c-1.5-1-2.6-2.5-3.4-4.3c-0.8-1.9-1.2-4-1.2-6.5c0-2.7,0.5-5.3,1.6-7.7
		c1-2.4,2.5-4.4,4.3-6.1c1.8-1.7,4-3.1,6.5-4c2.5-1,5.2-1.5,8.2-1.5c1.8,0,3.3,0.1,4.7,0.4c0.2,0.4,0.4,0.9,0.5,1.4s0.2,1.1,0.2,1.7
		c-2.7,0-5.2,0.4-7.4,1.1c-2.2,0.7-4.1,1.8-5.8,3.1c-1.6,1.4-2.9,2.9-3.7,4.8c-0.9,1.8-1.3,3.8-1.3,6s0.4,3.9,1.3,5.1
		c0.9,1.2,2.2,1.8,3.8,1.8c1.2,0,2.3-0.3,3.5-1c1.2-0.7,2.2-1.6,3.2-2.9s1.8-2.8,2.5-4.6l-0.4,7.3l-1.1-0.4
		c-1.2,2.5-2.7,4.4-4.6,5.8C637.1,563.6,635.1,564.3,632.8,564.3z M648.2,564.3c-1.4,0-2.4-0.4-3.1-1.3c-0.7-0.9-1-2.2-1-3.9
		c0-0.6,0.1-1.6,0.2-3c0.2-1.4,0.4-2.9,0.6-4.7c0.3-1.8,0.6-3.8,0.9-5.8c0.3-2.1,0.7-4.2,1-6.3c0.4-2.1,0.7-4.1,1.1-6.1
		c0.4-1.9,0.7-3.7,0.9-5.2l-2.5-3.1c1.1-0.8,2.3-1.5,3.6-2c1.3-0.5,2.5-0.8,3.6-0.8c1.2,0,2,0.2,2.6,0.7c0.5,0.5,0.8,1.3,0.8,2.5
		c0,0.9-0.2,2.2-0.5,3.9c-0.4,1.7-0.8,3.6-1.3,5.8c-0.5,2.2-1,4.6-1.5,7.2c-0.5,2.6-0.9,5.3-1.3,8c-0.4,2.8-0.5,5.5-0.5,8.4
		c0,1,0.1,1.8,0.3,2.4c0.2,0.6,0.5,1.2,0.9,1.6c-0.7,0.6-1.4,1-2.2,1.3C649.9,564.1,649,564.3,648.2,564.3z"/>
	<path d="M668.1,564.3c-1.4,0-2.4-0.4-3.1-1.3c-0.7-0.9-1-2.2-1-3.9c0-0.6,0.1-1.6,0.2-3c0.2-1.4,0.4-2.9,0.6-4.7
		c0.3-1.8,0.6-3.8,0.9-5.8c0.3-2.1,0.7-4.2,1-6.3c0.4-2.1,0.7-4.1,1.1-6.1c0.4-1.9,0.7-3.7,0.9-5.2l-2.5-3.1c1.1-0.8,2.2-1.5,3.6-2
		s2.5-0.8,3.7-0.8c1.2,0,2,0.2,2.5,0.7c0.5,0.5,0.7,1.3,0.7,2.5c0,0.6-0.1,1.6-0.4,2.9c-0.2,1.3-0.6,2.9-0.9,4.8
		c-0.4,1.8-0.8,3.8-1.2,5.9c-0.4,2.1-0.8,4.3-1.2,6.6c-0.4,2.3-0.7,4.5-1,6.8c-0.2,2.2-0.4,4.3-0.4,6.3c0,1,0.1,1.8,0.3,2.4
		c0.2,0.6,0.5,1.2,0.9,1.6c-0.6,0.6-1.4,1-2.2,1.3C669.8,564.1,668.9,564.3,668.1,564.3z"/>
	<path d="M695.2,564.3c-3.9,0-7-1.2-9.2-3.5c-2.2-2.3-3.4-5.5-3.4-9.5c0-2.9,0.5-5.5,1.5-8c1-2.4,2.4-4.6,4.1-6.3
		c1.8-1.8,3.8-3.2,6.2-4.2c2.4-1,5-1.5,7.8-1.5c2.9,0,5.2,0.7,6.8,2c1.6,1.3,2.5,3.2,2.5,5.6c0,2.5-0.9,4.6-2.7,6.4
		c-1.8,1.8-4.3,3.1-7.7,4c-3.4,0.9-7.4,1.4-12.2,1.4l0.6-3.3c4.8,0,8.5-0.8,11.1-2.2c2.6-1.5,4-3.5,4-6.1c0-1.1-0.3-2-1-2.6
		c-0.7-0.7-1.5-1-2.7-1c-1.4,0-2.8,0.4-4.1,1.2c-1.3,0.8-2.4,2-3.4,3.5c-1,1.5-1.8,3.2-2.3,5.1c-0.6,2-0.8,4-0.8,6.2
		c0,2.7,0.5,4.8,1.5,6.3c1,1.5,2.3,2.3,4.1,2.3c2.1,0,3.9-0.7,5.3-2.1c1.4-1.4,2.1-3.3,2.2-5.6c1.6,0,2.8,0.3,3.7,0.9
		c0.9,0.6,1.3,1.5,1.3,2.7c0,1.4-0.6,2.8-1.7,4c-1.2,1.2-2.7,2.3-4.7,3C700,563.9,697.7,564.3,695.2,564.3z"/>
	<path d="M727.9,564.3c-2.6,0-4.7-0.2-6.5-0.7c-1.8-0.5-3.1-1.1-4-2c-0.9-0.9-1.3-1.9-1.3-3c0-0.7,0.2-1.5,0.7-2.2
		c0.5-0.7,1.1-1.4,2-1.9c0.9,1.7,2.1,3.1,3.6,4c1.5,0.9,3.2,1.4,5.1,1.4c1.3,0,2.6-0.2,3.7-0.5c1.1-0.3,2.1-0.9,2.8-1.6
		c0.7-0.7,1.1-1.6,1.1-2.7c0-0.8-0.4-1.5-1.2-2.1c-0.8-0.6-1.9-1.1-3.2-1.5c-1.3-0.4-2.7-0.9-4.1-1.4c-1.4-0.5-2.8-1.1-4.1-1.8
		c-1.3-0.7-2.4-1.6-3.2-2.7c-0.8-1.1-1.2-2.4-1.2-4c0-1.7,0.4-3.1,1.2-4.4c0.8-1.3,1.9-2.3,3.4-3.2c1.5-0.9,3.2-1.5,5.1-2
		c2-0.5,4.1-0.7,6.4-0.7c3.1,0,5.6,0.5,7.5,1.4c1.9,0.9,2.8,2.1,2.8,3.6c0,1.4-0.5,2.5-1.4,3.2c-1,0.7-2.1,1.1-3.5,1.1
		c-1.3,0-2.5-0.4-3.6-1.3c-1.1-0.9-1.9-2.1-2.5-3.8c-2.4,0.3-4.4,0.9-5.8,1.8c-1.5,0.9-2.2,2-2.2,3.4c0,0.8,0.4,1.5,1.2,2.1
		c0.8,0.5,1.9,1,3.2,1.5c1.3,0.5,2.7,0.9,4.1,1.4c1.5,0.5,2.8,1.1,4.1,1.8c1.3,0.7,2.3,1.6,3.2,2.7c0.8,1.1,1.3,2.5,1.3,4.2
		c0,1.5-0.4,2.9-1.1,4.1c-0.8,1.2-1.8,2.3-3.1,3.1c-1.3,0.9-2.9,1.5-4.6,2C731.8,564,729.9,564.3,727.9,564.3z"/>
	<path d="M760.9,564.3c-2.6,0-4.7-0.2-6.5-0.7c-1.8-0.5-3.1-1.1-4-2c-0.9-0.9-1.3-1.9-1.3-3c0-0.7,0.2-1.5,0.7-2.2
		c0.5-0.7,1.1-1.4,2-1.9c0.9,1.7,2.1,3.1,3.6,4c1.5,0.9,3.2,1.4,5.1,1.4c1.3,0,2.6-0.2,3.7-0.5c1.1-0.3,2.1-0.9,2.8-1.6
		c0.7-0.7,1.1-1.6,1.1-2.7c0-0.8-0.4-1.5-1.2-2.1c-0.8-0.6-1.9-1.1-3.2-1.5c-1.3-0.4-2.7-0.9-4.1-1.4c-1.4-0.5-2.8-1.1-4.1-1.8
		c-1.3-0.7-2.4-1.6-3.2-2.7c-0.8-1.1-1.2-2.4-1.2-4c0-1.7,0.4-3.1,1.2-4.4c0.8-1.3,1.9-2.3,3.4-3.2c1.5-0.9,3.2-1.5,5.1-2
		c2-0.5,4.1-0.7,6.4-0.7c3.1,0,5.6,0.5,7.5,1.4c1.9,0.9,2.8,2.1,2.8,3.6c0,1.4-0.5,2.5-1.4,3.2c-1,0.7-2.1,1.1-3.5,1.1
		c-1.3,0-2.5-0.4-3.6-1.3c-1.1-0.9-1.9-2.1-2.5-3.8c-2.4,0.3-4.4,0.9-5.8,1.8c-1.5,0.9-2.2,2-2.2,3.4c0,0.8,0.4,1.5,1.2,2.1
		c0.8,0.5,1.9,1,3.2,1.5c1.3,0.5,2.7,0.9,4.1,1.4c1.5,0.5,2.8,1.1,4.1,1.8c1.3,0.7,2.3,1.6,3.2,2.7c0.8,1.1,1.3,2.5,1.3,4.2
		c0,1.5-0.4,2.9-1.1,4.1c-0.8,1.2-1.8,2.3-3.1,3.1c-1.3,0.9-2.9,1.5-4.6,2C764.8,564,762.9,564.3,760.9,564.3z"/>
	<path d="M805.3,564.3c-1.4,0-2.4-0.4-3.1-1.3c-0.7-0.9-1-2.2-1-3.9c0-0.6,0.1-1.6,0.2-3c0.2-1.4,0.4-2.9,0.6-4.7
		c0.3-1.8,0.6-3.8,0.9-5.8c0.3-2.1,0.7-4.2,1-6.3c0.4-2.1,0.7-4.1,1.1-6.1c0.4-1.9,0.7-3.7,0.9-5.2l-2.5-3.1c1.1-0.8,2.2-1.5,3.6-2
		s2.5-0.8,3.7-0.8c1.2,0,2,0.2,2.5,0.7c0.5,0.5,0.7,1.3,0.7,2.5c0,0.6-0.1,1.6-0.4,2.9c-0.2,1.3-0.6,2.9-0.9,4.8
		c-0.4,1.8-0.8,3.8-1.2,5.9c-0.4,2.1-0.8,4.3-1.2,6.6c-0.4,2.3-0.7,4.5-1,6.8c-0.2,2.2-0.4,4.3-0.4,6.3c0,1,0.1,1.8,0.3,2.4
		c0.2,0.6,0.5,1.2,0.9,1.6c-0.6,0.6-1.4,1-2.2,1.3C807,564.1,806.1,564.3,805.3,564.3z"/>
	<path d="M832.4,564.3c-3.9,0-7-1.2-9.2-3.5c-2.2-2.3-3.4-5.5-3.4-9.5c0-2.9,0.5-5.5,1.5-8c1-2.4,2.4-4.6,4.1-6.3
		c1.8-1.8,3.8-3.2,6.2-4.2c2.4-1,5-1.5,7.8-1.5c2.9,0,5.2,0.7,6.8,2c1.6,1.3,2.5,3.2,2.5,5.6c0,2.5-0.9,4.6-2.7,6.4
		c-1.8,1.8-4.3,3.1-7.7,4c-3.4,0.9-7.4,1.4-12.2,1.4l0.6-3.3c4.8,0,8.5-0.8,11.1-2.2c2.6-1.5,4-3.5,4-6.1c0-1.1-0.3-2-1-2.6
		c-0.7-0.7-1.5-1-2.7-1c-1.4,0-2.8,0.4-4.1,1.2c-1.3,0.8-2.4,2-3.4,3.5c-1,1.5-1.8,3.2-2.3,5.1c-0.6,2-0.8,4-0.8,6.2
		c0,2.7,0.5,4.8,1.5,6.3c1,1.5,2.3,2.3,4.1,2.3c2.1,0,3.9-0.7,5.3-2.1c1.4-1.4,2.1-3.3,2.2-5.6c1.6,0,2.8,0.3,3.7,0.9
		c0.9,0.6,1.3,1.5,1.3,2.7c0,1.4-0.6,2.8-1.7,4c-1.2,1.2-2.7,2.3-4.7,3C837.2,563.9,834.9,564.3,832.4,564.3z"/>
	<path d="M863.9,564.3c-1.9,0-3.6-0.5-5.1-1.5c-1.5-1-2.6-2.5-3.4-4.3c-0.8-1.9-1.2-4-1.2-6.5c0-3,0.5-5.7,1.6-8.2
		c1-2.5,2.5-4.7,4.3-6.5c1.8-1.9,4-3.3,6.5-4.3c2.5-1,5.2-1.5,8.2-1.5c1.5,0,3.1,0.1,4.7,0.4c0.2,0.4,0.4,0.8,0.5,1.4
		c0.1,0.5,0.2,1.1,0.2,1.7c-2.8,0-5.3,0.4-7.5,1.2c-2.2,0.8-4.1,2-5.7,3.5c-1.6,1.5-2.8,3.2-3.6,5.2c-0.8,2-1.3,4.1-1.3,6.4
		c0,2.2,0.4,3.9,1.3,5.1c0.9,1.2,2.2,1.8,3.8,1.8c3.1,0,5.6-1.9,7.5-5.8c1.9-3.9,3.4-9.7,4.3-17.5c0.6-0.7,1.2-1.2,2-1.6
		c0.8-0.4,1.6-0.6,2.5-0.6c1,0,1.8,0.3,2.3,0.8c0.5,0.5,0.8,1.2,0.8,2.1c0,1.1-0.2,2.5-0.6,4.2c-0.4,1.7-0.8,3.6-1.3,5.8
		c-0.5,2.1-1,4.3-1.3,6.6c-0.4,2.3-0.6,4.6-0.6,7c0,1.5,0.4,2.7,1.2,3.4c-0.7,0.6-1.4,1-2.2,1.3c-0.8,0.3-1.5,0.4-2.3,0.4
		c-1.4,0-2.4-0.4-3.2-1.2s-1.1-2-1.1-3.6c0-0.4,0-0.9,0.1-1.3c0.1-0.5,0.1-1,0.2-1.5l-0.5-0.3c-1.2,2.5-2.7,4.4-4.6,5.8
		C868.3,563.6,866.2,564.3,863.9,564.3z"/>
	<path d="M899.3,564.3c-1.5,0-2.6-0.4-3.3-1.2c-0.7-0.8-1.1-2.1-1.1-3.8c0-0.7,0.1-1.8,0.3-3.4c0.2-1.6,0.5-3.4,0.9-5.6
		c0.4-2.1,0.9-4.3,1.4-6.6c0.5-2.3,1-4.4,1.5-6.5l-2.4-3.1c1-0.8,2-1.4,3-1.9c1-0.5,2-0.7,3-0.7c1.2,0,2,0.3,2.5,0.9
		c0.5,0.6,0.8,1.4,0.8,2.3c0,1.2-0.2,2.4-0.6,3.7c-0.4,1.2-0.9,2.6-1.4,4l0.5,0.3c1-2.5,2.1-4.6,3.1-6.3c1.1-1.7,2.2-3,3.4-3.8
		c1.2-0.8,2.4-1.3,3.8-1.3c1.3,0,2.3,0.3,3,0.9c0.7,0.6,1.1,1.6,1.1,2.8c0,1.4-0.5,2.5-1.5,3.3c-1,0.8-2.3,1.3-4.1,1.3
		c-1.4,0-2.7,0.5-4,1.6s-2.4,2.5-3.4,4.4s-1.8,3.9-2.4,6.2s-0.9,4.7-0.9,7.3c0,1.5,0.3,2.7,0.8,3.4
		C902.1,563.7,900.7,564.3,899.3,564.3z"/>
	<path d="M926.1,564.3c-1.5,0-2.6-0.4-3.3-1.1c-0.7-0.8-1.1-1.9-1.1-3.5c0-0.8,0.1-2,0.3-3.6c0.2-1.6,0.6-3.5,1-5.7
		c0.4-2.1,0.9-4.4,1.4-6.7c0.5-2.3,1-4.5,1.5-6.6l-2.5-3.1c1-0.8,2.2-1.4,3.5-1.9c1.3-0.5,2.5-0.7,3.7-0.7c1.2,0,2,0.3,2.6,0.8
		c0.5,0.5,0.8,1.3,0.8,2.5c0,0.9-0.1,1.9-0.4,3c-0.3,1.1-0.7,2.1-1.1,3l0.5,0.3c1.9-3.3,4-5.7,6.3-7.3c2.3-1.6,4.9-2.4,7.7-2.4
		c2.3,0,3.9,0.6,5,1.7c1.1,1.1,1.6,2.8,1.6,5.1c0,1.5-0.2,3.2-0.5,4.9c-0.4,1.7-0.8,3.5-1.2,5.3c-0.5,1.8-0.9,3.6-1.2,5.4
		c-0.4,1.8-0.5,3.6-0.5,5.5c0,1.5,0.3,2.7,0.8,3.4c-1.3,1.2-2.7,1.8-4.1,1.8c-1.5,0-2.6-0.4-3.3-1.1c-0.7-0.8-1.1-1.9-1.1-3.5
		c0-1.5,0.2-3.1,0.5-4.8c0.3-1.7,0.7-3.5,1.2-5.2c0.4-1.8,0.8-3.4,1.1-5c0.3-1.6,0.5-2.9,0.5-4.1c0-1.2-0.2-2.1-0.7-2.7
		c-0.5-0.6-1.1-0.9-2.1-0.9c-1.3,0-2.6,0.4-3.9,1.2c-1.3,0.8-2.5,1.9-3.6,3.3c-1.1,1.4-2.2,3-3.1,4.9c-0.9,1.9-1.6,3.9-2.1,6
		c-0.5,2.2-0.8,4.4-0.8,6.7c0,1.5,0.2,2.7,0.7,3.4C928.9,563.7,927.5,564.3,926.1,564.3z"/>
	<path d="M966.3,564.3c-1.5,0-2.7-0.4-3.4-1.1c-0.7-0.8-1.1-1.9-1.1-3.5c0-0.7,0.1-1.8,0.3-3c0.2-1.3,0.4-2.8,0.8-4.7
		c0.4-1.8,0.8-4,1.3-6.4s1.1-5.2,1.8-8.3l-2.5-3.2c1.1-0.8,2.3-1.5,3.6-2c1.3-0.5,2.6-0.7,3.7-0.7c1.2,0,2,0.2,2.5,0.7
		c0.5,0.5,0.7,1.3,0.7,2.5c0,0.3-0.1,0.9-0.3,1.9c-0.2,1-0.5,2.2-0.8,3.6s-0.7,2.9-1.1,4.6s-0.8,3.4-1.1,5.1c-0.4,1.8-0.6,3.4-0.8,5
		c-0.2,1.6-0.3,3.1-0.3,4.4c0,0.8,0.1,1.4,0.3,2s0.5,1,0.9,1.4C969.3,563.7,967.8,564.3,966.3,564.3z M970.5,527.3
		c-1.3,0-2.3-0.3-3.1-0.9c-0.8-0.6-1.2-1.5-1.2-2.5c0-0.9,0.3-1.7,0.8-2.3s1.2-1.2,2-1.6c0.8-0.4,1.7-0.6,2.7-0.6
		c1.3,0,2.3,0.3,3.1,0.9c0.8,0.6,1.2,1.4,1.2,2.5c0,0.8-0.2,1.6-0.7,2.3c-0.5,0.7-1.1,1.2-2,1.6
		C972.4,527.1,971.5,527.3,970.5,527.3z"/>
	<path d="M986.6,564.3c-1.5,0-2.6-0.4-3.3-1.1c-0.7-0.8-1.1-1.9-1.1-3.5c0-0.8,0.1-2,0.3-3.6s0.6-3.5,1-5.7c0.4-2.1,0.9-4.4,1.4-6.7
		c0.5-2.3,1-4.5,1.5-6.6l-2.5-3.1c1-0.8,2.2-1.4,3.5-1.9c1.3-0.5,2.5-0.7,3.7-0.7c1.2,0,2,0.3,2.6,0.8c0.5,0.5,0.8,1.3,0.8,2.5
		c0,0.9-0.2,1.9-0.4,3c-0.3,1.1-0.7,2.1-1.1,3l0.5,0.3c1.9-3.3,4-5.7,6.3-7.3s4.9-2.4,7.7-2.4c2.3,0,3.9,0.6,5,1.7s1.6,2.8,1.6,5.1
		c0,1.5-0.2,3.2-0.5,4.9c-0.4,1.7-0.8,3.5-1.2,5.3c-0.5,1.8-0.9,3.6-1.2,5.4c-0.4,1.8-0.5,3.6-0.5,5.5c0,1.5,0.3,2.7,0.8,3.4
		c-1.3,1.2-2.7,1.8-4.1,1.8c-1.5,0-2.6-0.4-3.3-1.1s-1.1-1.9-1.1-3.5c0-1.5,0.2-3.1,0.5-4.8c0.3-1.7,0.7-3.5,1.2-5.2
		c0.4-1.8,0.8-3.4,1.1-5c0.3-1.6,0.5-2.9,0.5-4.1c0-1.2-0.2-2.1-0.7-2.7c-0.5-0.6-1.1-0.9-2.1-0.9c-1.3,0-2.6,0.4-3.9,1.2
		c-1.3,0.8-2.5,1.9-3.6,3.3c-1.1,1.4-2.2,3-3.1,4.9c-0.9,1.9-1.6,3.9-2.1,6c-0.5,2.2-0.8,4.4-0.8,6.7c0,1.5,0.2,2.7,0.7,3.4
		C989.3,563.7,988,564.3,986.6,564.3z"/>
	<path d="M1026,575.4c-2.8,0-5-0.5-6.6-1.4c-1.6-0.9-2.5-2.1-2.5-3.6c0-0.8,0.3-1.7,0.8-2.6s1.2-1.6,2-2.1c0.8,1.4,1.8,2.4,3.1,3.1
		c1.2,0.7,2.7,1,4.3,1c1.4,0,2.9-0.3,4.5-1c1.6-0.7,3.1-1.8,4.7-3.3c1.5-1.5,2.9-3.7,4.1-6.3c1.2-2.7,2.1-6,2.8-10
		c0.7-4,0.9-8.8,0.7-14.4c0.9-0.9,1.7-1.5,2.3-1.8c0.7-0.3,1.4-0.5,2.1-0.5c1.8,0,2.7,0.8,2.7,2.5c0,4.1-0.3,8.1-0.8,12
		c-0.5,3.9-1.4,7.6-2.6,11s-2.8,6.4-4.7,9c-2,2.6-4.3,4.6-7.1,6.1C1032.9,574.7,1029.7,575.4,1026,575.4z M1029.2,562.6
		c-2,0-3.7-0.5-5.2-1.5c-1.5-1-2.7-2.4-3.5-4.2c-0.8-1.8-1.2-3.9-1.2-6.4c0-2.7,0.5-5.3,1.4-7.7c0.9-2.4,2.3-4.4,4.1-6.1
		c1.8-1.7,3.9-3.1,6.4-4c2.5-1,5.3-1.5,8.4-1.5c1.7,0,3.3,0.1,4.7,0.4c0.2,0.4,0.4,0.9,0.5,1.4c0.1,0.5,0.2,1.1,0.2,1.7
		c-2.7,0-5.1,0.4-7.3,1.1c-2.2,0.8-4.1,1.8-5.7,3.2s-2.8,3-3.7,4.8c-0.8,1.8-1.3,3.9-1.3,6c0,2.4,0.5,4.2,1.4,5.5c0.9,1.3,2.3,2,4,2
		c0.8,0,1.7-0.2,2.7-0.6c1-0.4,2-1.1,3-2.1c1-1,1.9-2.4,2.8-4.1c0.8-1.7,1.5-3.9,2.1-6.5s0.8-5.7,0.8-9.3l0.2,20.3h-3.4
		c-1.2,2.4-2.8,4.2-4.9,5.6C1033.7,562,1031.5,562.6,1029.2,562.6z"/>
	<path d="M1077.9,564.3c-1.2,0-2.3-0.4-3.1-1.2c-0.8-0.8-1.2-1.8-1.2-3c0-0.9,0.2-1.8,0.7-2.5c0.4-0.8,1-1.4,1.8-1.9
		c0.8-0.5,1.6-0.7,2.6-0.7c1.3,0,2.3,0.4,3.1,1.2c0.8,0.8,1.2,1.8,1.2,3c0,0.9-0.2,1.7-0.7,2.5c-0.5,0.8-1.1,1.4-1.8,1.9
		C1079.7,564,1078.9,564.3,1077.9,564.3z M1080.2,549.3c-1,0-1.7-0.3-2.1-0.9c-0.4-0.6-0.5-1.3-0.5-2.2c0-0.6,0.1-1.5,0.3-2.6
		c0.2-1.1,0.4-2.3,0.6-3.7c0.2-1.3,0.5-2.7,0.7-4.1s0.5-2.8,0.6-4c0.2-1.2,0.3-2.3,0.3-3.2c0-0.7-0.1-1.5-0.2-2.3
		c-0.2-0.8-0.4-1.5-0.9-2c0.8-0.8,1.8-1.4,2.9-1.8c1.1-0.4,2.3-0.6,3.6-0.6c1.6,0,2.8,0.5,3.5,1.4c0.7,0.9,1,2.1,1,3.4
		c0,0.8-0.1,2-0.4,3.4c-0.3,1.4-0.7,2.9-1.1,4.6c-0.5,1.7-1,3.3-1.6,5c-0.6,1.7-1.1,3.2-1.6,4.6c-0.5,1.4-1,2.6-1.4,3.5
		c-0.5,0.5-1.1,0.8-1.8,1.1C1081.3,549.2,1080.7,549.3,1080.2,549.3z"/>
	<path d="M494.8,638.6c-2.8,0-5-0.5-6.6-1.4c-1.6-0.9-2.4-2.1-2.4-3.6c0-0.8,0.3-1.7,0.8-2.6c0.5-0.9,1.2-1.6,2-2.1
		c0.8,1.4,1.8,2.4,3.1,3.1c1.2,0.7,2.7,1,4.3,1c1.4,0,2.9-0.3,4.5-1c1.6-0.7,3.1-1.8,4.7-3.3c1.5-1.5,2.9-3.7,4.1-6.3
		c1.2-2.7,2.1-6,2.8-10c0.6-4,0.9-8.8,0.7-14.4c0.9-0.9,1.7-1.5,2.3-1.8c0.7-0.3,1.4-0.5,2.1-0.5c1.8,0,2.7,0.8,2.7,2.5
		c0,4.1-0.3,8.1-0.8,12c-0.5,3.9-1.4,7.6-2.6,11c-1.2,3.4-2.8,6.4-4.7,9c-1.9,2.6-4.3,4.6-7.1,6.1
		C501.8,637.8,498.5,638.6,494.8,638.6z M498.1,625.8c-2,0-3.7-0.5-5.2-1.5c-1.5-1-2.7-2.4-3.5-4.2c-0.8-1.8-1.2-3.9-1.2-6.3
		c0-2.7,0.5-5.3,1.4-7.6c0.9-2.4,2.3-4.4,4.1-6.1s3.9-3.1,6.4-4c2.5-1,5.3-1.4,8.4-1.4c1.7,0,3.3,0.1,4.7,0.4
		c0.2,0.4,0.4,0.9,0.5,1.4c0.1,0.5,0.2,1.1,0.2,1.7c-2.7,0-5.1,0.4-7.3,1.1c-2.2,0.8-4.1,1.8-5.7,3.2c-1.6,1.4-2.8,3-3.7,4.8
		s-1.3,3.9-1.3,6c0,2.4,0.5,4.2,1.4,5.5c0.9,1.3,2.3,1.9,4,1.9c0.8,0,1.7-0.2,2.7-0.6c1-0.4,2-1.1,3-2.1c1-1,1.9-2.4,2.8-4.1
		c0.8-1.7,1.5-3.9,2.1-6.5s0.8-5.7,0.8-9.3l0.2,20.3h-3.4c-1.2,2.4-2.8,4.2-4.9,5.6C502.5,625.2,500.3,625.8,498.1,625.8z"/>
	<path d="M531.3,627.4c-1.5,0-2.6-0.4-3.3-1.2c-0.7-0.8-1.1-2.1-1.1-3.8c0-0.7,0.1-1.8,0.3-3.4c0.2-1.6,0.5-3.4,0.9-5.6
		c0.4-2.1,0.9-4.3,1.4-6.6c0.5-2.3,1-4.4,1.5-6.4l-2.4-3.1c1-0.8,2-1.4,3-1.9c1-0.5,2-0.7,3-0.7c1.2,0,2,0.3,2.5,0.9
		c0.5,0.6,0.8,1.4,0.8,2.3c0,1.2-0.2,2.4-0.6,3.7c-0.4,1.2-0.9,2.6-1.4,4l0.5,0.3c1-2.5,2.1-4.6,3.1-6.3c1.1-1.7,2.2-2.9,3.3-3.8
		c1.2-0.8,2.4-1.3,3.8-1.3c1.3,0,2.3,0.3,3,0.9c0.7,0.6,1.1,1.6,1.1,2.8c0,1.4-0.5,2.5-1.5,3.3c-1,0.8-2.3,1.3-4.1,1.3
		c-1.4,0-2.7,0.5-3.9,1.6c-1.3,1.1-2.4,2.5-3.4,4.3c-1,1.8-1.8,3.9-2.4,6.2s-0.9,4.7-0.9,7.3c0,1.5,0.3,2.7,0.8,3.4
		C534,626.9,532.7,627.4,531.3,627.4z"/>
	<path d="M565.8,627.4c-2.7,0-5-0.6-7-1.7c-2-1.1-3.5-2.7-4.6-4.8c-1.1-2.1-1.6-4.5-1.6-7.3c0-2.8,0.5-5.4,1.4-7.7
		c0.9-2.3,2.2-4.3,3.9-6c1.7-1.7,3.7-3,6-3.9c2.3-0.9,4.8-1.4,7.6-1.4c0.7,0,1.4,0,2,0.1s1.3,0.2,1.9,0.3c0.2,0.4,0.4,0.9,0.5,1.4
		c0.1,0.5,0.1,1.1,0.1,1.7c-3.3,0-6.2,0.7-8.5,2.1c-2.4,1.4-4.1,3.3-5.4,5.7c-1.2,2.4-1.8,5.1-1.8,8.1c0,3.1,0.6,5.4,1.7,7.1
		c1.1,1.6,2.7,2.4,4.7,2.4c1.9,0,3.5-0.5,5-1.6c1.5-1,2.7-2.5,3.7-4.4c1-1.9,1.6-4.1,1.8-6.7c-1.4-0.8-2.4-1.8-3.1-2.9
		c-0.6-1.1-1-2.4-1-3.9c0-1.1,0.2-2.1,0.7-2.9c0.4-0.8,1-1.5,1.8-2c0.8-0.5,1.6-0.7,2.5-0.7c1.8,0,3.1,0.7,4.2,2.2s1.5,3.5,1.5,6.1
		c0,2.9-0.5,5.6-1.4,8.1c-0.9,2.5-2.2,4.7-3.8,6.6s-3.6,3.4-5.7,4.4C570.7,626.9,568.3,627.4,565.8,627.4z"/>
	<path d="M598.7,627.4c-1.9,0-3.2-0.6-3.9-1.8c-0.7-1.2-1.1-3.3-1.1-6.3c0-2.4,0-4.8,0.1-7.1c0-2.3,0-4.4-0.1-6.5
		c-0.1-2-0.4-3.9-0.9-5.5c-0.5-1.6-1.2-3-2.2-4.2c1.4-1.1,2.9-1.6,4.5-1.6c1.5,0,2.6,0.5,3.5,1.4c0.9,0.9,1.5,2.5,1.9,4.7
		c0.4,2.2,0.6,5.3,0.6,9.1c0,1.9,0,3.6,0,4.9c0,1.4,0,2.5,0,3.5c0,0.9,0,1.7,0,2.4c0,0.6,0,1.2,0,1.7h0.5c2.1-2.5,3.8-4.9,5.1-7.2
		c1.3-2.3,2.4-4.4,3.1-6.3c0.7-1.9,1.2-3.4,1.5-4.6c0.3-1.2,0.4-2,0.4-2.3c0-0.5-0.1-0.9-0.3-1.4s-0.4-1-0.7-1.5
		c-0.3-0.5-0.5-0.9-0.6-1.2c0.6-0.6,1.2-1,1.8-1.2c0.5-0.3,1.1-0.4,1.6-0.4c1.2,0,2.1,0.4,2.7,1.1c0.6,0.7,0.9,1.7,0.9,3.1
		c0,1.3-0.3,2.8-0.8,4.4c-0.5,1.6-1.2,3.4-2.1,5.2c-0.9,1.9-2,3.9-3.2,6.1c-1.2,2.1-2.4,3.9-3.4,5.4c-1,1.5-2,2.6-2.9,3.5
		c-0.9,0.9-1.9,1.5-2.8,1.9C600.8,627.2,599.8,627.4,598.7,627.4z M617,627.4c-1.5,0-2.6-0.3-3.5-1c-0.8-0.7-1.4-1.6-1.8-2.9
		c-0.4-1.3-0.6-2.8-0.7-4.7l-1.6-21.2c0.6-0.6,1.2-1,1.9-1.2c0.7-0.2,1.4-0.3,2.1-0.3l1.6,3.1l0.9,23.1h0.5c2.3-3.8,4.1-7.1,5.5-9.9
		c1.4-2.9,2.4-5.3,3.1-7.3c0.6-2,1-3.6,1-4.7c0-1.6-0.3-3-1-4.2c0.9-0.6,1.7-1,2.6-1.2c0.8-0.3,1.7-0.4,2.5-0.4c1.1,0,2,0.4,2.6,1.1
		c0.6,0.7,0.9,1.7,0.9,3c0,1-0.2,2.2-0.6,3.5c-0.4,1.4-1,3-1.8,4.9c-0.8,1.9-1.8,4.1-3.1,6.7c-1.2,2.5-2.8,5.4-4.6,8.7l0.9,1.9
		c-0.6,0.6-1.3,1.1-2.1,1.6c-0.8,0.5-1.7,0.8-2.7,1.1C618.8,627.3,617.9,627.4,617,627.4z"/>
	<path d="M643.9,603.3c-1.1,0-1.8-0.2-2.2-0.5c-0.4-0.4-0.6-0.9-0.6-1.7c0-0.4,0.1-0.9,0.2-1.4c0.1-0.5,0.3-1,0.7-1.5
		c0.6,0.2,1.4,0.3,2.3,0.4c0.9,0.1,1.8,0.1,2.5,0.1c1.9,0,3.8-0.2,5.7-0.6c1.9-0.4,3.8-0.6,5.7-0.6c1.1,0,1.8,0.2,2.2,0.6
		c0.4,0.4,0.6,1,0.6,1.8c0,0.4-0.1,0.8-0.2,1.3c-0.1,0.5-0.3,1-0.7,1.5c-0.6-0.2-1.3-0.3-2.2-0.4c-0.9-0.1-1.7-0.1-2.5-0.1
		c-1.9,0-3.8,0.2-5.7,0.6C647.7,603.1,645.8,603.3,643.9,603.3z M647,627.4c-0.8,0-1.5-0.1-2.1-0.4c-0.6-0.3-1.2-0.8-1.6-1.5
		c-0.4-0.7-0.6-1.8-0.6-3.3c0-1.4,0.2-3.1,0.5-4.8s0.7-3.6,1.2-5.6c0.5-1.9,0.9-3.8,1.4-5.6c0.5-1.8,0.9-3.5,1.2-5.1
		c0.3-1.6,0.5-2.9,0.5-4c0-0.8-0.1-1.6-0.2-2.5c-0.1-0.9-0.4-1.8-0.6-2.7c0.8-0.8,1.8-1.4,3-1.9c1.2-0.5,2.4-0.7,3.6-0.7
		c1.2,0,2,0.3,2.5,0.8c0.5,0.5,0.7,1.3,0.7,2.5c0,0.9-0.2,2.1-0.6,3.6c-0.4,1.5-0.9,3.2-1.5,5.1s-1.2,3.9-1.8,6.2
		c-0.6,2.2-1.1,4.5-1.5,6.9c-0.4,2.4-0.6,4.8-0.7,7.3l2.1,3.5c-0.8,0.8-1.7,1.4-2.7,1.7C648.8,627.3,647.9,627.4,647,627.4z"/>
	<path d="M668,627.4c-1.5,0-2.7-0.4-3.4-1.2c-0.7-0.8-1.1-1.9-1.1-3.4c0-0.8,0.1-2,0.4-3.6c0.2-1.6,0.6-3.5,0.9-5.7
		c0.4-2.2,0.8-4.6,1.3-7.1c0.5-2.5,1-5.1,1.5-7.7c0.5-2.6,1-5.1,1.4-7.5l-2.5-3.1c1.1-0.8,2.2-1.5,3.6-2c1.3-0.5,2.5-0.8,3.7-0.8
		c1.2,0,2,0.2,2.5,0.7c0.5,0.5,0.7,1.3,0.7,2.4c0,0.9-0.2,2.1-0.5,3.5c-0.3,1.5-0.7,3.2-1.2,5.3c-0.5,2.1-1.1,4.4-1.7,7.2l0.5,0.3
		c1.4-2.5,2.9-4.4,4.6-6c1.6-1.5,3.3-2.6,5-3.3c1.7-0.7,3.4-1,4.9-1c2.2,0,3.9,0.5,5,1.6c1.1,1.1,1.7,2.8,1.7,5.2
		c0,1.5-0.2,3.2-0.5,4.9c-0.4,1.7-0.8,3.4-1.2,5.2c-0.5,1.8-0.9,3.6-1.2,5.4c-0.4,1.8-0.5,3.6-0.5,5.4c0,0.7,0.1,1.4,0.2,1.9
		c0.1,0.6,0.4,1.1,0.6,1.4c-1.3,1.2-2.7,1.8-4.1,1.8c-1.6,0-2.7-0.4-3.4-1.2c-0.7-0.8-1-1.9-1-3.4c0-1.5,0.2-3.1,0.5-4.8
		c0.3-1.7,0.7-3.5,1.2-5.2c0.4-1.8,0.8-3.4,1.1-5s0.5-2.9,0.5-4.1c0-1.1-0.2-2-0.6-2.7c-0.4-0.6-1.1-1-2.1-1c-1.4,0-2.8,0.5-4.4,1.6
		c-1.6,1.1-3.1,2.6-4.4,4.6c-1.4,2-2.5,4.3-3.4,7c-0.9,2.7-1.3,5.7-1.3,9c0,0.7,0.1,1.4,0.2,1.9c0.1,0.6,0.3,1.1,0.6,1.4
		C670.8,626.9,669.4,627.4,668,627.4z"/>
	<path d="M701.5,635.8l-0.7-1.9c0.9-0.5,1.8-1.1,2.4-1.9c0.7-0.8,1.2-1.6,1.6-2.5c0.4-0.9,0.6-1.7,0.6-2.4l-3-3.9
		c0.1-0.9,0.4-1.8,0.8-2.5c0.5-0.8,1.1-1.4,2-1.8c0.8-0.5,1.7-0.7,2.7-0.7c1.5,0,2.6,0.5,3.4,1.5c0.8,1,1.2,2.1,1.2,3.4
		c0,2-0.4,3.9-1.3,5.6s-2.2,3.1-3.8,4.4C705.7,634.2,703.7,635.1,701.5,635.8z"/>
	<path d="M746.2,627.4c-1.9,0-3.6-0.5-5.1-1.5c-1.5-1-2.6-2.5-3.4-4.3c-0.8-1.9-1.2-4-1.2-6.5c0-2.9,0.5-5.7,1.6-8.2
		c1-2.5,2.5-4.7,4.3-6.5c1.8-1.9,4-3.3,6.5-4.3c2.5-1,5.2-1.5,8.2-1.5c1.5,0,3.1,0.1,4.7,0.4c0.2,0.4,0.4,0.8,0.5,1.4
		c0.1,0.5,0.2,1.1,0.2,1.7c-2.8,0-5.3,0.4-7.5,1.2c-2.2,0.8-4.1,2-5.7,3.5c-1.6,1.5-2.8,3.2-3.6,5.2c-0.8,2-1.3,4.1-1.3,6.4
		c0,2.2,0.4,3.9,1.3,5.1c0.9,1.2,2.2,1.8,3.8,1.8c3.1,0,5.5-1.9,7.5-5.8c1.9-3.8,3.4-9.7,4.3-17.5c0.6-0.7,1.2-1.2,2-1.6
		c0.8-0.4,1.6-0.6,2.5-0.6c1,0,1.7,0.3,2.3,0.8c0.5,0.5,0.8,1.2,0.8,2.1c0,1.1-0.2,2.5-0.6,4.2c-0.4,1.7-0.8,3.6-1.3,5.7
		c-0.5,2.1-1,4.3-1.3,6.6c-0.4,2.3-0.6,4.6-0.6,6.9c0,1.5,0.4,2.7,1.2,3.4c-0.7,0.6-1.4,1-2.2,1.3c-0.8,0.3-1.5,0.4-2.3,0.4
		c-1.4,0-2.4-0.4-3.2-1.2c-0.7-0.8-1.1-2-1.1-3.6c0-0.4,0-0.9,0.1-1.3s0.1-1,0.2-1.4l-0.5-0.3c-1.2,2.5-2.7,4.4-4.6,5.8
		S748.4,627.4,746.2,627.4z"/>
	<path d="M781.5,627.4c-1.5,0-2.6-0.4-3.3-1.1c-0.7-0.8-1.1-1.9-1.1-3.4c0-0.8,0.1-2,0.3-3.6c0.2-1.6,0.6-3.5,1-5.7
		c0.4-2.1,0.9-4.4,1.4-6.7c0.5-2.3,1-4.5,1.5-6.6l-2.5-3.1c1-0.8,2.2-1.4,3.5-1.9c1.3-0.5,2.5-0.7,3.7-0.7c1.2,0,2,0.3,2.6,0.8
		s0.8,1.3,0.8,2.5c0,0.9-0.1,1.9-0.4,3c-0.3,1.1-0.7,2.1-1.1,3l0.5,0.3c1.9-3.3,4-5.7,6.3-7.3c2.3-1.6,4.9-2.4,7.7-2.4
		c2.2,0,3.9,0.6,5,1.7c1.1,1.1,1.6,2.8,1.6,5.1c0,1.5-0.2,3.2-0.5,4.9c-0.4,1.7-0.8,3.4-1.2,5.2c-0.5,1.8-0.9,3.6-1.2,5.4
		c-0.4,1.8-0.5,3.6-0.5,5.4c0,1.5,0.3,2.7,0.8,3.4c-1.3,1.2-2.7,1.8-4.1,1.8c-1.5,0-2.6-0.4-3.3-1.1c-0.7-0.8-1.1-1.9-1.1-3.4
		c0-1.5,0.2-3.1,0.5-4.8c0.3-1.7,0.7-3.5,1.2-5.2c0.4-1.8,0.8-3.4,1.1-5s0.5-2.9,0.5-4.1c0-1.2-0.2-2.1-0.7-2.7
		c-0.5-0.6-1.1-0.9-2.1-0.9c-1.3,0-2.6,0.4-3.9,1.2c-1.3,0.8-2.5,1.9-3.6,3.3c-1.1,1.4-2.2,3-3.1,4.9s-1.6,3.9-2.1,6
		c-0.5,2.2-0.8,4.4-0.8,6.7c0,1.5,0.2,2.7,0.7,3.4C784.2,626.9,782.9,627.4,781.5,627.4z"/>
	<path d="M825.4,627.4c-1.9,0-3.6-0.5-5.1-1.5c-1.5-1-2.6-2.5-3.4-4.3c-0.8-1.9-1.2-4-1.2-6.5c0-2.7,0.5-5.3,1.6-7.6
		c1-2.4,2.5-4.4,4.3-6.1c1.8-1.7,4-3.1,6.5-4c2.5-1,5.2-1.4,8.2-1.4c1.8,0,3.3,0.1,4.7,0.4c0.2,0.4,0.4,0.9,0.5,1.4
		c0.1,0.5,0.2,1.1,0.2,1.7c-2.7,0-5.2,0.4-7.4,1.1s-4.1,1.8-5.7,3.1c-1.6,1.4-2.9,2.9-3.7,4.8c-0.9,1.8-1.3,3.8-1.3,6
		c0,2.2,0.4,3.9,1.3,5.1s2.2,1.8,3.8,1.8c1.2,0,2.3-0.3,3.5-1s2.2-1.6,3.2-2.9c1-1.3,1.8-2.8,2.5-4.6l-0.4,7.3l-1.1-0.4
		c-1.2,2.5-2.7,4.4-4.6,5.8S827.6,627.4,825.4,627.4z M840.7,627.4c-1.4,0-2.4-0.4-3.1-1.3c-0.7-0.9-1-2.2-1-3.9
		c0-0.6,0.1-1.6,0.2-3c0.2-1.4,0.4-2.9,0.6-4.7c0.3-1.8,0.6-3.7,0.9-5.8c0.3-2.1,0.7-4.2,1-6.3c0.4-2.1,0.7-4.1,1.1-6.1
		c0.4-1.9,0.6-3.7,0.9-5.2l-2.5-3.1c1.1-0.8,2.3-1.5,3.6-2c1.3-0.5,2.5-0.8,3.6-0.8c1.2,0,2,0.2,2.6,0.7c0.5,0.5,0.8,1.3,0.8,2.4
		c0,0.9-0.2,2.2-0.5,3.9c-0.4,1.7-0.8,3.6-1.3,5.8c-0.5,2.2-1,4.6-1.5,7.2c-0.5,2.6-0.9,5.2-1.3,8c-0.4,2.8-0.5,5.5-0.5,8.3
		c0,1,0.1,1.8,0.3,2.4c0.2,0.6,0.5,1.2,0.9,1.6c-0.7,0.6-1.4,1-2.2,1.3C842.4,627.3,841.6,627.4,840.7,627.4z"/>
	<path d="M882.7,627.4c-2.6,0-4.7-0.2-6.5-0.7c-1.8-0.5-3.1-1.1-4-2c-0.9-0.9-1.3-1.9-1.3-3c0-0.7,0.2-1.5,0.7-2.2
		c0.5-0.7,1.1-1.4,1.9-1.9c0.9,1.7,2.1,3.1,3.6,4c1.5,0.9,3.2,1.4,5.1,1.4c1.3,0,2.6-0.2,3.7-0.5c1.1-0.3,2.1-0.9,2.8-1.6
		c0.7-0.7,1.1-1.6,1.1-2.7c0-0.8-0.4-1.5-1.2-2.1c-0.8-0.6-1.9-1.1-3.2-1.5c-1.3-0.4-2.7-0.9-4.1-1.4c-1.4-0.5-2.8-1.1-4.1-1.8
		c-1.3-0.7-2.4-1.6-3.2-2.7c-0.8-1.1-1.2-2.4-1.2-4c0-1.6,0.4-3.1,1.2-4.4c0.8-1.3,1.9-2.3,3.4-3.2c1.5-0.9,3.2-1.5,5.1-2
		c1.9-0.5,4.1-0.7,6.3-0.7c3.1,0,5.6,0.5,7.5,1.4c1.9,0.9,2.8,2.1,2.8,3.6c0,1.4-0.5,2.5-1.4,3.2c-0.9,0.7-2.1,1.1-3.5,1.1
		c-1.3,0-2.5-0.4-3.6-1.3c-1.1-0.9-1.9-2.1-2.5-3.8c-2.4,0.3-4.4,0.9-5.8,1.8c-1.5,0.9-2.2,2-2.2,3.3c0,0.8,0.4,1.5,1.2,2.1
		c0.8,0.5,1.9,1,3.2,1.5c1.3,0.5,2.6,0.9,4.1,1.4c1.5,0.5,2.8,1.1,4.1,1.8c1.3,0.7,2.3,1.6,3.2,2.7c0.8,1.1,1.3,2.5,1.3,4.2
		c0,1.5-0.4,2.9-1.1,4.1c-0.8,1.2-1.8,2.3-3.1,3.1c-1.3,0.9-2.9,1.5-4.6,2C886.5,627.2,884.7,627.4,882.7,627.4z"/>
	<path d="M914.2,627.4c-2.8,0-4.9-0.7-6.3-2.1c-1.4-1.4-2.1-3.5-2.1-6.4c0-1.5,0.1-3,0.4-4.7c0.2-1.6,0.5-3.3,0.9-4.9
		c0.4-1.6,0.6-3.2,0.9-4.7c0.2-1.5,0.4-2.8,0.4-4.1c0-0.8-0.1-1.6-0.2-2.4c-0.1-0.7-0.3-1.4-0.6-1.9c0.9-0.5,1.9-1,2.9-1.3
		s1.8-0.5,2.4-0.5c1.2,0,2,0.3,2.5,0.8c0.5,0.5,0.8,1.4,0.8,2.7c0,0.8-0.1,1.8-0.3,3.1c-0.2,1.3-0.5,2.7-0.8,4.3s-0.6,3.1-0.9,4.7
		c-0.3,1.6-0.6,3-0.8,4.3c-0.2,1.3-0.3,2.3-0.3,3c0,1.8,0.4,3.1,1.2,4c0.8,0.9,1.9,1.3,3.4,1.3c1.9,0,3.7-0.7,5.3-2.1
		c1.7-1.4,3-3.3,3.9-5.7l-0.1,8.1l-2.2-1.1c-0.8,1.1-1.7,2-2.9,2.8c-1.1,0.8-2.4,1.5-3.7,1.9C916.8,627.2,915.5,627.4,914.2,627.4z
		 M929.6,627.4c-1.5,0-2.6-0.4-3.3-1.3c-0.7-0.9-1.1-2.3-1.1-4.2c0-0.9,0.1-2.2,0.4-4c0.3-1.8,0.7-4.1,1.3-6.9
		c0.6-2.8,1.4-6.3,2.3-10.3l-2.4-3.5c0.8-0.6,1.7-1.1,2.5-1.5c0.8-0.4,1.7-0.7,2.5-0.9c0.8-0.2,1.6-0.3,2.3-0.3c1.2,0,2,0.2,2.5,0.7
		c0.5,0.5,0.7,1.3,0.7,2.5c0,0.3-0.1,0.9-0.3,1.9c-0.2,1-0.5,2.2-0.8,3.6c-0.3,1.4-0.7,2.9-1.1,4.6s-0.7,3.4-1.1,5.1
		c-0.4,1.8-0.6,3.4-0.8,5c-0.2,1.6-0.3,3-0.3,4.3c0,1.6,0.4,2.7,1.1,3.4C932.7,626.9,931.2,627.4,929.6,627.4z"/>
	<path d="M957.4,627.4c-4,0-7.2-1.2-9.6-3.4c-2.3-2.3-3.5-5.5-3.5-9.6c0-2.8,0.5-5.5,1.5-7.9c1-2.4,2.4-4.5,4.1-6.3
		c1.8-1.8,3.8-3.2,6.2-4.2c2.4-1,4.9-1.5,7.6-1.5c2.5,0,4.4,0.4,5.8,1.3c1.4,0.8,2.2,2,2.2,3.4c0,1.2-0.4,2.2-1.3,3
		c-0.9,0.8-2,1.2-3.3,1.2c-1.3,0-2.5-0.3-3.6-1c-1.1-0.6-2-1.7-2.7-3.1c-1.7,0.7-3.1,1.8-4.4,3.3c-1.3,1.5-2.3,3.3-3.1,5.4
		c-0.8,2.1-1.1,4.3-1.1,6.7c0,2.7,0.5,4.8,1.5,6.4c1,1.5,2.4,2.3,4.1,2.3c1.4,0,2.7-0.4,3.8-1.1c1.1-0.7,2-1.7,2.7-3
		c0.7-1.2,1-2.6,1.1-4.2c1.6,0,2.8,0.3,3.7,0.9c0.9,0.6,1.3,1.5,1.3,2.7c0,1.6-0.6,3-1.7,4.4s-2.7,2.4-4.6,3.2
		C961.9,627.1,959.8,627.4,957.4,627.4z"/>
	<path d="M990.4,627.4c-4,0-7.2-1.2-9.6-3.4c-2.3-2.3-3.5-5.5-3.5-9.6c0-2.8,0.5-5.5,1.5-7.9s2.4-4.5,4.1-6.3
		c1.8-1.8,3.8-3.2,6.2-4.2c2.4-1,4.9-1.5,7.6-1.5c2.5,0,4.4,0.4,5.8,1.3c1.4,0.8,2.2,2,2.2,3.4c0,1.2-0.4,2.2-1.3,3
		c-0.9,0.8-2,1.2-3.3,1.2c-1.3,0-2.5-0.3-3.6-1c-1.1-0.6-2-1.7-2.7-3.1c-1.7,0.7-3.1,1.8-4.4,3.3c-1.3,1.5-2.3,3.3-3.1,5.4
		c-0.8,2.1-1.1,4.3-1.1,6.7c0,2.7,0.5,4.8,1.5,6.4c1,1.5,2.4,2.3,4.1,2.3c1.4,0,2.7-0.4,3.8-1.1c1.1-0.7,2-1.7,2.7-3
		c0.7-1.2,1-2.6,1.1-4.2c1.6,0,2.8,0.3,3.7,0.9c0.9,0.6,1.3,1.5,1.3,2.7c0,1.6-0.6,3-1.7,4.4s-2.7,2.4-4.6,3.2
		C994.9,627.1,992.7,627.4,990.4,627.4z"/>
	<path d="M1022.8,627.4c-3.9,0-7-1.2-9.2-3.4c-2.2-2.3-3.3-5.5-3.3-9.5c0-2.9,0.5-5.5,1.5-8c1-2.4,2.4-4.5,4.1-6.3
		c1.8-1.8,3.8-3.2,6.2-4.2c2.4-1,5-1.5,7.8-1.5c2.9,0,5.2,0.7,6.8,2c1.6,1.3,2.4,3.2,2.4,5.6c0,2.5-0.9,4.6-2.7,6.4
		c-1.8,1.8-4.3,3.1-7.7,4c-3.4,0.9-7.4,1.4-12.1,1.4l0.6-3.3c4.8,0,8.5-0.8,11.1-2.2c2.6-1.5,3.9-3.5,3.9-6.1c0-1.1-0.3-2-1-2.6
		c-0.7-0.6-1.5-1-2.7-1c-1.4,0-2.8,0.4-4.1,1.2c-1.3,0.8-2.4,2-3.4,3.4c-1,1.5-1.8,3.2-2.3,5.1c-0.6,1.9-0.8,4-0.8,6.2
		c0,2.7,0.5,4.8,1.5,6.3c1,1.5,2.3,2.3,4.1,2.3c2.1,0,3.9-0.7,5.2-2.1c1.4-1.4,2.1-3.3,2.2-5.6c1.6,0,2.8,0.3,3.7,0.9
		c0.9,0.6,1.3,1.5,1.3,2.7c0,1.4-0.6,2.8-1.7,4s-2.7,2.3-4.7,3C1027.5,627.1,1025.3,627.4,1022.8,627.4z"/>
	<path d="M1055.4,627.4c-2.6,0-4.7-0.2-6.5-0.7s-3.1-1.1-4-2c-0.9-0.9-1.3-1.9-1.3-3c0-0.7,0.2-1.5,0.7-2.2c0.5-0.7,1.1-1.4,1.9-1.9
		c0.9,1.7,2.1,3.1,3.6,4c1.5,0.9,3.2,1.4,5.1,1.4c1.3,0,2.6-0.2,3.7-0.5c1.1-0.3,2.1-0.9,2.8-1.6c0.7-0.7,1.1-1.6,1.1-2.7
		c0-0.8-0.4-1.5-1.2-2.1c-0.8-0.6-1.9-1.1-3.2-1.5c-1.3-0.4-2.7-0.9-4.1-1.4c-1.4-0.5-2.8-1.1-4.1-1.8c-1.3-0.7-2.4-1.6-3.2-2.7
		c-0.8-1.1-1.2-2.4-1.2-4c0-1.6,0.4-3.1,1.2-4.4c0.8-1.3,1.9-2.3,3.4-3.2c1.5-0.9,3.2-1.5,5.1-2c1.9-0.5,4.1-0.7,6.3-0.7
		c3.1,0,5.6,0.5,7.5,1.4c1.9,0.9,2.8,2.1,2.8,3.6c0,1.4-0.5,2.5-1.4,3.2c-0.9,0.7-2.1,1.1-3.5,1.1c-1.3,0-2.5-0.4-3.6-1.3
		c-1.1-0.9-1.9-2.1-2.5-3.8c-2.4,0.3-4.4,0.9-5.8,1.8c-1.5,0.9-2.2,2-2.2,3.3c0,0.8,0.4,1.5,1.2,2.1c0.8,0.5,1.9,1,3.2,1.5
		c1.3,0.5,2.6,0.9,4.1,1.4c1.5,0.5,2.8,1.1,4.1,1.8c1.3,0.7,2.3,1.6,3.2,2.7c0.8,1.1,1.3,2.5,1.3,4.2c0,1.5-0.4,2.9-1.1,4.1
		c-0.8,1.2-1.8,2.3-3.1,3.1c-1.3,0.9-2.9,1.5-4.6,2C1059.2,627.2,1057.4,627.4,1055.4,627.4z"/>
	<path d="M1088.3,627.4c-2.6,0-4.7-0.2-6.5-0.7s-3.1-1.1-4-2c-0.9-0.9-1.3-1.9-1.3-3c0-0.7,0.2-1.5,0.7-2.2c0.5-0.7,1.1-1.4,1.9-1.9
		c0.9,1.7,2.1,3.1,3.6,4c1.5,0.9,3.2,1.4,5.1,1.4c1.3,0,2.6-0.2,3.7-0.5c1.1-0.3,2.1-0.9,2.8-1.6c0.7-0.7,1.1-1.6,1.1-2.7
		c0-0.8-0.4-1.5-1.2-2.1c-0.8-0.6-1.9-1.1-3.2-1.5c-1.3-0.4-2.7-0.9-4.1-1.4c-1.4-0.5-2.8-1.1-4.1-1.8c-1.3-0.7-2.4-1.6-3.2-2.7
		c-0.8-1.1-1.2-2.4-1.2-4c0-1.6,0.4-3.1,1.2-4.4c0.8-1.3,1.9-2.3,3.4-3.2c1.5-0.9,3.2-1.5,5.1-2c1.9-0.5,4.1-0.7,6.3-0.7
		c3.1,0,5.6,0.5,7.5,1.4c1.9,0.9,2.8,2.1,2.8,3.6c0,1.4-0.5,2.5-1.4,3.2c-0.9,0.7-2.1,1.1-3.5,1.1c-1.3,0-2.5-0.4-3.6-1.3
		c-1.1-0.9-1.9-2.1-2.5-3.8c-2.4,0.3-4.4,0.9-5.8,1.8c-1.5,0.9-2.2,2-2.2,3.3c0,0.8,0.4,1.5,1.2,2.1c0.8,0.5,1.9,1,3.2,1.5
		c1.3,0.5,2.6,0.9,4.1,1.4c1.5,0.5,2.8,1.1,4.1,1.8c1.3,0.7,2.3,1.6,3.2,2.7c0.8,1.1,1.3,2.5,1.3,4.2c0,1.5-0.4,2.9-1.1,4.1
		c-0.8,1.2-1.8,2.3-3.1,3.1c-1.3,0.9-2.9,1.5-4.6,2C1092.2,627.2,1090.3,627.4,1088.3,627.4z"/>
</g>
</svg>
